<?xml version="1.0" encoding="UTF-8"?><svg id="Capa_1" xmlns="http://www.w3.org/2000/svg" viewBox="0 0 1200 1200"><polygon points="709.52 1176.34 471.43 810.09 49.52 923.35 324.28 583.73 86.18 217.47 494.09 373.83 768.84 34.21 746.18 470.47 1154.09 626.82 732.18 740.09 709.52 1176.34" fill="#fd04a9"/><path d="M416.41,307.81c16.89-2.89,27.99,2.65,41.85,2.43,15.46-.25,31.05-4.98,48.93-3.14,10.92,1.13,25.73,8.74,33.59,8.74,7.1,0,19.36-6.78,28.24-7.96,21.43-2.85,73.07,2.69,96.84,5.31,72.76,8.01,128.31,24.9,143.57,103.53,8.76,45.11,10.31,117.51,3.59,162.5-3.82,25.61-10.83,61.93-32.93,76.88-8.46,5.72-48.95,28.91-57.1,31.37-10.52,3.17-34.22,7.15-44.92,7.22-12.74.08-27.16-6.32-38.91-5.63-4.25.25-42.35,9.43-43.66,11.26-2.74,24.86-1,50.08-1.18,75.05-.3,39.83,10.09,79.88,5.94,121.85-1.55,15.65-8.69,42.65-26.55,46.66l-164.16.76c-12.05-1.29-18.7-6.37-21.52-18.22-8.03-33.76,1.93-91.11,1.91-126.88-.02-59.65-6.53-119.98-3.34-179.95.58-10.81,6.21-21.16,6.2-30.39-.01-8.39-5.69-16.9-5.62-24.45.09-9.47,9.22-18.34,8.65-27.16-.46-7.13-7.93-16.86-9.14-27.68-3.73-33.62,3.25-70.9,3.25-103.7,0-31.32-18.81-90.65,26.47-98.39ZM608.62,435.69c-2.94.42-5.89,2.41-8.4,4.01-4.56,17.17-2.27,39.28-2.85,58.14-.65,21.05-7.07,44.46.37,66.44,3.22,9.51,22.59,5.4,28.37-1.11,10.6-11.93,9.34-75.23,7.84-93.03-1.16-13.71-6.76-37.12-25.32-34.45Z"/></svg>