<svg xmlns="http://www.w3.org/2000/svg" viewBox="0 0 1000 1000"><path fill="#f09" d="M486 6.7C859.5 0 1121.6 391 942.2 729.2c-173 326.2-642 357.6-853.6 53.3C-137.6 457.4 96.2 13.8 486 6.8m-28.5 28.5C244.5 50.7 52.6 228.7 29 442c-53 477.2 550.9 719.1 845.5 346.1 259.7-328.9-10.3-782.6-417-753"/><path d="M457.5 35.2c406.7-29.6 676.7 424 417 753C579.8 1161-24 919.1 29 442 52.6 228.7 244.4 50.7 457.5 35.2m246 441.2c1.5-28.8 33.6-35.1 38.5-63.8 12.7-74.5-110.1-107-164.5-116.2-82.2-14-177.3-10.5-257.7 12.3-74.4 21.2-158.4 75.4-76.3 150.9L290.2 643c72.4 63 187 58.2 276.5 43-39.6-100 31.8-203.4 136.9-209.7M693 500.6c-158.7 18.9-142 263.3 25 250 164.3-13 140.3-269.7-25-250"/><path fill="#f09" d="M703.6 476.4C598.5 482.7 527 586.2 566.6 686c-89.3 15.3-204 20-276.4-43l-46.7-183.4c-82-75.5 1.9-129.7 76.4-150.9 80.3-22.8 175.4-26.2 257.6-12.3C632 305.6 754.7 338 742 412.6c-5 28.7-37 35-38.4 63.8m-272-151.6c-48.6 3.2-116.4 15.1-158 41.1-72.4 45.2 17.3 81.5 60.3 93.9C425 486 569 485.3 656.4 446c40-18 73.3-42 25-77.6-57.3-42.1-180.7-48.2-249.7-43.6"/><path fill="#f09" d="M692.9 500.6c165.3-19.7 189.3 237 25 250-167 13.3-183.7-231.1-25-250m29 110.5v-53c0-9.8-25.1-13.5-29.8-4-5 10.5 3 51.1-3.7 55.8-15.4 5.6-62-9-62.4 15.3-.4 29.2 46.7 8.6 62.4 15.4 10.2 7-11.4 65.5 19 63.5 24.7-1.6 10.8-45.3 14.8-61.7 16.7-9.4 59 11.9 61.3-15.2 2.1-26.5-45.2-13-61.6-16.1"/><path d="M431.6 324.8c69.1-4.6 192.5 1.5 249.7 43.6 48.4 35.6 15.2 59.6-25 77.6-87.2 39.3-231.3 40-322.4 13.8-43-12.4-132.7-48.7-60.3-93.9 41.6-26 109.4-38 158-41.1m230.6 102.4c-9.4-35-59.8-63.2-92.9-73.5-10.9-3.3-68.1-17.3-74-9 8.7 22.3-22.3 28-38.9 30.7-22.1 3.8-42.8 1.2-64.3 3-35 2.7-84.3 14.6-104.8 45.1 1.6 6.8 51.4 20.8 60 22.9 101 24.8 218.3 20.4 314.9-19.2M721.9 611c16.4 3.2 63.7-10.3 61.6 16.2-2.2 27-44.6 5.8-61.3 15.2-4 16.4 9.9 60.1-14.7 61.7-30.5 2-9-56.4-19-63.5-15.8-6.8-63 13.8-62.5-15.4.3-24.3 47-9.7 62.4-15.3 6.8-4.7-1.4-45.3 3.7-55.8 4.7-9.5 29.8-5.8 29.8 4z"/><path fill="#f09" d="M662.2 427.2c-96.6 39.6-213.8 44-315 19.2-8.5-2-58.3-16.1-59.9-22.9 20.5-30.5 69.9-42.4 104.8-45.1 21.5-1.8 42.2.8 64.3-3 16.6-2.7 47.6-8.4 39-30.8 5.8-8.2 63 5.7 73.9 9.1 33.1 10.3 83.5 38.5 92.9 73.5"/></svg>