<svg xmlns="http://www.w3.org/2000/svg" viewBox="0 0 1000 1000"><path fill="#f09" d="M468 7.1c441-27 703.9 487.3 403 822-221 245.7-621.8 202.9-792.8-76.4C-116.5 434.9 99.4 29.7 468 7m15.4 25.7c-391 20.2-595.7 459.4-340.2 768 178.9 216 522 220.4 708.4 11.4 270.6-303.2 61.7-765.5-335.5-780z"/><path d="m483.4 32.8 32.7-.7c397.2 14.6 606.1 477 335.5 780.1-186.5 209-529.5 204.6-708.4-11.4C-112.3 492.2 92.4 53 483.4 32.8M520 811c191.5-.5 338.4-179.2 302.7-368.1C795.5 299.4 668.5 191.5 522.4 190c-3.9 2.7-3.9 38.8 0 41.5C632.8 233.2 738 311.8 772 416.4c56.4 174-72.4 347.8-252 353.5zm-36-1.3V770c-116.5-.8-225.6-90.4-254.4-202A267.7 267.7 0 0 1 481 232.2l.4-40.7c-121-2.2-234 76.9-279 187.7-73.6 181 34.6 390.8 227 428.5 10.3 2 36.6 6.7 45.6 6.1 3-.2 8-.9 9-4Zm0-437V251.9c-7.7-6.8-26.7-2.7-37-1-223.5 36.2-284.2 328.4-98.6 457.9 38.3 26.7 88.6 45 135.6 43V624.7c-14.8-6-28.4-8.4-42.9-16.3C338 553 367.5 398 480.8 378.7c.6-.4 3-5.1 3.2-5.9Zm36 379.2c189-1.3 311-210 215.5-376.1C692.2 300.5 607.4 249 520 248v128.6c107 11.6 145.7 153 61.5 219.5-18.8 14.8-39.7 20.2-61.5 28.5zm0-270c-3-17.7 11.2-73.6-20.7-68.3-28 4.7-8.3 49.2-18.3 68-17.6 2.8-71.8-9.5-66.5 22 4 23.2 50.8 10.6 67 15.5 9.4 20-12.8 74.1 26.3 65.1 21.2-4.8 9-49.5 12.2-66.3 18.3-2.8 66.8 10 69.4-17 2.8-28.6-52.7-16.6-69.4-19"/><path fill="#f09" d="M520 751.9V624.6c21.8-8.3 42.7-13.7 61.5-28.5 84.2-66.5 45.4-207.9-61.5-219.5V248c87.4 1.1 172.2 52.5 215.5 127.8C831 541.9 709 750.6 520 751.8M601.4 337c28.4-29.8-17.9-71.1-45.5-41.6-27.5 29.5 18.7 69.7 45.5 41.6m38.6 11.5c-15 19 11.1 15.9 21.6 18.8 4.2 1.2 14.3 13 17.6 2.4 5.1-16.6-28-21.3-39.3-21.2m49 62c-35.7 7.3-27.6 69 14.2 60.5 37.4-7.7 27.1-69-14.2-60.5m5.2 110.4c-45.3 4.3-31.3 79.4 14.5 61 34.6-14 15.5-63.8-14.5-61m-43 135.7c18.4 9.2 33.9-36 20.5-42.5-13.8-6.7-12 17.4-13.5 22.7-1.7 5.8-10 11.1-7 19.8Zm-75.4-17.4c-38.7 8-30.6 69.7 14.3 60.6 35.7-7.3 27.6-69.1-14.2-60.5M484 372.7c-.2.8-2.7 5.5-3.2 5.9-113.3 19.4-143 174.3-39.7 229.8 14.5 7.8 28 10.1 42.9 16.2V752c-47 2-97.3-16.4-135.6-43.1C162.8 579.3 223.4 287 447 250.9c10.3-1.7 29.3-5.8 37 1zm-67.6-65c-29.2 6.7-29.8 59.2 7.5 60.3 45 1.3 42.5-71.8-7.5-60.3m-67 22.8c-11.5 4.1-28.3 43.3-13 46 10.3-1.8 9-14 12-21 4.2-9.4 17.1-19.9 1-25Zm-46 74.9c-34.6 5.8-34.4 56.2-3.1 61 52.7 8 48.8-68.7 3-61m4.4 111.3c-43.6.9-37.4 71.8 9 59.2 33.4-9.1 28.8-60-9-59.2m20 116.3c5.2 5.3 39.4 14.3 40.6 2 1.2-12.5-12.3-8-20.9-10.2-4.8-1.2-11.4-5.9-14.5-6.2-7-.6-10.4 8.9-5.2 14.4m91.2 16.6c-37.1 7.7-27.7 69.2 14.2 60.6 39.7-8.2 27.2-69-14.2-60.6"/><path fill="#f09" d="M520 811V770c179.6-5.7 308.4-179.5 252-353.5-33.9-104.6-139.2-183.2-249.6-185-3.9-2.6-3.9-38.7 0-41.4 146 1.5 273.1 109.4 300.3 252.9C858.4 631.9 711.5 810.5 520 811M484 809.7c-1 3.2-6 4-9 4.1-9 .6-35.3-4.1-45.6-6.1C237 770 128.8 560.3 202.4 379.2c45-110.8 158-190 279-187.7l-.4 40.7A267.7 267.7 0 0 0 229.6 568c28.8 111.6 137.9 201.2 254.3 202z"/><path fill="#f09" d="M520 482c16.7 2.3 72.2-9.7 69.4 19-2.6 27-51.1 14-69.4 17-3.2 16.7 9 61.4-12.2 66.2-39.1 9-16.9-45.2-26.2-65.1-16.3-4.9-63.2 7.8-67-15.4-5.5-31.6 48.8-19.3 66.4-22.1 10-18.8-9.7-63.3 18.2-68 32-5.3 17.9 50.6 20.8 68.4"/><path d="M575.9 639.4c41.8-8.6 49.9 53.2 14.2 60.5-44.9 9.1-53-52.6-14.2-60.5M694.2 521c30-2.8 49.1 47 14.5 61-45.8 18.4-59.8-56.7-14.5-61M689 410.6c41.3-8.5 51.6 52.8 14.2 60.5-41.8 8.6-50-53.2-14.2-60.5M601.4 337.1c-26.8 28.1-73-12.1-45.5-41.6 27.6-29.5 74 11.8 45.5 41.6M651.2 656.7c-3-8.7 5.3-14 7-19.8 1.5-5.3-.3-29.3 13.5-22.7 13.4 6.5-2 51.8-20.5 42.5ZM640 348.6c11.2-.1 44.3 4.6 39.2 21.2-3.3 10.6-13.4-1.2-17.7-2.4-10.4-3-36.4.2-21.5-18.8M303.3 405.4c45.8-7.7 49.7 69-3 61-31.3-4.8-31.5-55.2 3-61M419 649.6c41.3-8.5 54 52.4 14.2 60.6-42 8.6-51.3-53-14.2-60.6M416.4 307.7c50-11.5 52.5 61.6 7.5 60.3-37.3-1.1-36.6-53.6-7.5-60.3M307.8 516.7c37.9-.7 42.4 50.1 9 59.2-46.4 12.6-52.6-58.3-9-59.2M349.3 330.5c16.2 5.1 3.3 15.6-.9 25-3 7-1.7 19.2-12 21-15.3-2.7 1.5-41.9 13-46M327.8 633c-5.2-5.5-1.8-15 5.2-14.4 3.1.3 9.7 5 14.5 6.2 8.6 2.2 22.1-2.3 20.9 10.1s-35.4 3.4-40.6-2"/></svg>