<svg xmlns="http://www.w3.org/2000/svg" viewBox="0 0 1000 1000"><path fill="#f09" d="M468.1 6.7C904.2-18.6 1163.4 478.4 884 819.4c-239.4 292-719.6 208.3-850.5-142.4C-86.2 356.7 128.9 26.4 468 6.7m-18 28.4C71.9 62.7-104.5 520.4 137 805.3c246 290 715.2 190.3 817.8-175.4C1048.2 297.2 786.3 10.5 450 35.1"/><path d="M450 35C786.4 10.6 1048.3 297.3 955 630 852.3 995.5 383 1095.2 137.2 805.2-104.5 520.3 71.9 62.7 450 35.1m180.5 121-113 52.3-25.8 116.2 30-1.3 21.8-94.2 102-45.1c1.8-2.8-6.8-32-15-28M315.2 390H679c1.5 0 3.6-3.7 3.5-5.9-.5-8-13-35.1-21-38.5l-322.8-1.8c-9 1.4-14.2 7.7-18.4 15.2-2.9 5.3-13.2 28.6-5 31m336.6 18H343.6c-2 0-5 6-3.8 8.7l47 373.7c3.7 10.3 7.8 13.9 18.5 15 60.2 5.8 130-4.9 191.2-.1l10.2-5.3z"/><path fill="#f09" d="m651.8 408.2-45.1 392-10.2 5.2c-61.3-4.8-131 5.9-191.2 0-10.7-1-14.8-4.6-18.6-14.9l-46.9-373.7c-1.2-2.7 1.8-8.6 3.8-8.6zM315.2 390.1c-8.2-2.4 2.1-25.7 5-31 4.2-7.5 9.4-13.8 18.4-15.2l322.9 1.8c7.9 3.4 20.4 30.6 20.9 38.5.1 2.2-2 6-3.5 6zM630.5 156c8.2-4 16.8 25.1 15 27.9l-102 45.1-21.9 94.2-29.9 1.3 25.9-116.2z"/></svg>