<svg xmlns="http://www.w3.org/2000/svg" viewBox="0 0 1000 1000"><path fill="#f09" d="M462.7 9.5c333.8-24.3 597.8 272.1 525.2 602.4-92.8 421.9-653 521.7-899 169.3C-131.8 465.3 83 37.2 462.6 9.5m5.1 25.8C139.2 56.9-65.2 388.9 69.1 692.6c155.8 352.4 651 377.8 843.2 44.7 190.8-330.8-70-726.7-444.5-702"/><path d="M467.8 35.3c374.4-24.7 635.3 371.2 444.5 702C720 1070.3 224.9 1045 69 692.6-65.2 389 139.2 57 467.8 35.3m2.9 241.2 17-61.6c8.2-10.7 54.7-19.6 65.8-29.7 5.4-4.8-1.1-11.4-5.2-15.5l-9.8.5-69.5 29.9-18.7 76.7zm-130 41.5h230.8l-7.5-26.8-218.3.8c-3.4 3.9-11.5 24.4-5 26M549.7 331H354.9l18.7 173.3 49.7 69 34.8 2.5c1.3-1.2-8.5-27.2-7.7-34.5.6-6.7 26.3-69.7 30.8-75 10.4-12.2 56.8-26.4 60.7-34.8l11-94.7zm-47.7 146.9 184.4 62L819 466.2l-176.7-53-95.7 41zM342 493.2c1.4-1.4-16.6-26.2-18-27-12.2-6.7-47.1 6.8-60 12.2-59.8 25-114.3 80.3-132.6 143.2-10.5 35.8-13.9 64.1 32.7 65-1.2-100.5 84-176.4 178-193.3m513 38.5c1.8-2.6-19.6-47.2-23.4-52.3-1.7-2.3-2.7-4.4-6-4.2L693.8 550l4 72.1zm-165 90.4c-5.1-14.3-1.6-67.4-11.7-74.5l-189.1-61.9-20.8 59c17 7 54 14.3 68 23.7 10.6 7 4.7 12 7.2 21 2.4 8.4 42.4 21.4 51.8 19.3 5.8-1.2 10-7.4 14.7-8.7 13-3.7 72.8 28.7 80 22.1M354.6 506.5c-93.1 13.7-178.5 85-173.7 185.4 3.6 6.2 36.7 7.6 46.4 18 15.3 16.5-6.6 40 11.7 55.3 42.4 12.2 18.8-36.8 28.3-46.5 6-6.1 18.5-1.7 23.4-5 2-1.3 6-15.2 10.1-20 12.8-14.5 47.9-13.2 61.7-.5 15.3 14.1 8.5 32.4 14.4 42.3 2.2 3.7 14.8 5.8 18 13 4.7 10.3-7.9 35.9 13 35.8 21.9 0 9.4-24 12.8-30.7 6-11.1 21.5-1.8 24 7 4.4 14.8-9.5 56.8 24.5 46.5 15.3-4.6 2-27.8 1.8-36.8-.8-30.2 48.1.5 61.3-12.2 2.1-3 3.2-6.2 2.1-9.8-1.2-4-47.7-66-51.8-66.9-7.5 5.1-11.8 11.4-20.9 15.2-55 23-93.8-44.6-39.6-62.9 7.4-2.5 16-2 23.1-5.1l-33.5-47.7h-3.7c-54.8 51.9-125.6-35.7-40-54.2zm10 30.9c-13.9 3.4-4.5 22.9 8.6 14 6.6-4.6-.9-16-8.6-14M697.8 689l143.2-90c6.9-7.6 14-48.1 12.8-59.4l-156 96.6zm-7.7 0v-42.5c0-2.6-3.8-11.8-6.8-13.8-15-9.4-48.7-12-65.3-22.6-6.4-1.1-13.8 11.4-32.4 9.4-7.5-.8-43.9-14.5-47.1-19.9-3.5-5.7-4.6-16.8-6.1-23.5l-62.8-23.6c-6.4-2.1 15.3 61 14.8 65.1l3.5 4.2zm-343.8-126c-11.3 3.8-1 22.6 11.3 14 7.3-5 1.5-18.1-11.3-14m47 20c7.4-4.7-2.8-21-12.7-14-9.2 6.6 3.1 20 12.6 14M432 658c5.3-7.5-9.6-23.4-16.5-10-7.7 15 14 13.6 16.5 10m7.4 19c-11.4-10.9-26.7 9.1-10 13.4 9.3 2.3 16.3-7.5 10-13.5m-82.6 37.3c6.8-7-.8-18.1-9.6-13.7-13.2 6.7 2 21.7 9.6 13.7"/><path fill="#f09" d="m354.5 506.5 13.3 20.3c-85.5 18.4-14.7 106 40 54.2h3.8l33.5 47.6c-7.2 3-15.7 2.7-23.1 5.1-54.2 18.3-15.3 86 39.6 62.9 9-3.8 13.4-10 21-15.2 4 .9 50.5 62.9 51.7 67 1.1 3.6 0 6.8-2.1 9.7-13.2 12.7-62.2-18-61.3 12.2.2 9 13.5 32.3-1.8 36.9-34 10.2-20.1-31.8-24.5-46.7-2.5-8.7-18-18-24-6.9-3.4 6.8 9 30.6-12.8 30.7-20.9 0-8.2-25.4-13-35.8-3.2-7.1-15.8-9.2-18-13-6-9.9.9-28.2-14.4-42.2-13.8-12.8-48.9-14.1-61.6.4-4.2 4.8-8.2 18.8-10.2 20-5 3.3-17.4-1-23.4 5-9.5 9.8 14.1 58.8-28.3 46.5-18.3-15.2 3.6-38.8-11.7-55.3-9.7-10.4-42.8-11.8-46.4-18-4.8-100.4 80.6-171.6 173.7-185.4Zm-57.2 145.7c12.7-12.6 10.7-32.4-.5-45.4-20.6-23.9-71.5-15.1-73.5 19.1-2.2 36.8 51.3 48.8 74 26.3M549.6 330.9l3.4 5.8-11.1 94.7c-4 8.4-50.3 22.6-60.7 34.8-4.5 5.3-30.2 68.3-30.8 75-.8 7.3 9 33.4 7.7 34.5l-34.8-2.6-49.7-68.9L355 330.9z"/><path fill="#f09" d="m501.9 477.8 44.7-23.6 95.7-40.9 176.6 52.9-132.6 73.6zM690 622.1c-7 6.6-67-25.8-79.9-22.1-4.6 1.3-9 7.5-14.7 8.8-9.4 2-49.4-11-51.8-19.4-2.5-9 3.4-14-7.3-21-14-9.4-50.8-16.7-68-23.6l20.9-59 189.1 61.8c10.1 7.1 6.6 60.2 11.8 74.5M342 493.3c-93.9 16.9-179 92.8-177.9 193.3-46.6-.9-43.2-29.3-32.7-65 18.3-63 72.8-118.1 132.6-143.2 13-5.4 47.8-18.9 60-12.2 1.4.8 19.4 25.6 18 27M855 531.7l-157.2 90.4L694 550l131.6-74.7c3.4-.2 4.4 2 6 4.2 4 5.1 25.2 49.7 23.4 52.3"/><path fill="#f09" d="M690 689.1 488 622l-3.6-4.2c.5-4.2-21.2-67.2-14.8-65.1l62.8 23.6c1.5 6.7 2.6 17.8 6 23.5 3.4 5.4 39.7 19.1 47.2 20 18.6 2 26-10.6 32.4-9.5 16.6 10.7 50.2 13.2 65.3 22.6 3 2 6.8 11.2 6.8 13.8v42.5M697.8 689.1v-52.8l156-96.6c1.2 11.3-6 51.8-12.8 59.3zM340.8 318c-6.6-1.6 1.5-22.1 4.9-26l218.3-.7 7.5 26.7zM470.7 276.5l-20.4.3L469 200l69.5-29.9 9.8-.5c4.1 4.1 10.6 10.7 5.2 15.5-11 10.1-57.6 19-65.8 29.7zM432 658c-2.5 3.6-24.2 5-16.5-10 6.9-13.4 21.8 2.5 16.5 10M346.3 563.2c12.8-4.2 18.6 9 11.3 14-12.2 8.5-22.6-10.3-11.3-14M439.4 677c6.3 5.8-.7 15.7-10 13.4-16.7-4.3-1.4-24.3 10-13.5M393.2 583.1c-9.5 6-21.8-7.4-12.6-14 10-7 20.1 9.3 12.6 14M364.5 537.4c7.7-2 15.2 9.4 8.6 14-13.1 8.9-22.5-10.6-8.6-14M356.8 714.3c-7.7 8-22.8-7-9.6-13.7 8.8-4.4 16.4 6.6 9.6 13.7"/><path d="M297.3 652.2c-22.7 22.5-76.2 10.5-74-26.3 2-34.2 53-43 73.5-19 11.1 13 13.2 32.7.5 45.3M265 606.9c-4 5.6 3.6 17 11.8 13.4 16.7-7.5-5.2-22.7-11.8-13.4m-16.4 15.9c-11.7-11.3-20.8 7.6-12.4 13.7 7.8 5.7 20.8-5.4 12.4-13.7m25.4 12.5c-10 3.1-2.3 21.9 8.9 14 6.3-4.4 2.2-17.6-8.9-14"/><path fill="#f09" d="M248.6 622.8c8.4 8.3-4.6 19.4-12.4 13.7-8.4-6 .8-25 12.4-13.7M265 607c6.6-9.4 28.5 5.8 11.8 13.3-8.2 3.6-15.8-7.8-11.8-13.4M274 635.3c11.1-3.6 15.2 9.6 8.9 14-11.2 7.9-18.8-10.9-8.9-14"/></svg>