<svg xmlns="http://www.w3.org/2000/svg" viewBox="0 0 1000 1000"><path d="M683.7 66.2c349.9 146.5 394.4 625.5 75.7 834C479.8 1083 101.1 922.6 37 594.6-35.5 223.4 336.5-79.1 683.7 66.2M862 598.1c47.3-170.2-39.8-356.7-199-432.2-279.1-132.5-596.6 115-524 418.8C192.5 808.2 423.6 934 639.6 847.5c3.1-1.3 23.9-10 24-11.6l-33.4-40.2a321 321 0 0 1-194.8 20.8c-169-36-282.7-204.7-250-374.4 43-222.7 294.2-334.2 487.7-214.3 116 71.9 174 214.7 142.7 347.5zm-68-31.8c30-123.3-28.6-257-136.7-322-181-108.8-415-.9-450.9 207-19.5 113.3 32.4 232.6 127 297.3a330 330 0 0 0 69.2 35.6l102.4-160-99.8-177.8L602.9 494l84.8-92c3-8.4 5.1-12 13.8-14.6l35.7-38.3 10.5 137.3c17 11.2 22.7 33 10.8 50.3-1.4 2-8 8-6.5 9.8zm72.6 64.5-140.4-65.6-12-152-103 111.7-150.7-36.1 76.2 136.5-82 129 151.3-30L705 841.8l17.3-152.3zM614.4 779l-.2-2.5-19.4-22.2-171.7 36a302 302 0 0 0 166.7-3c8.3-2.5 16.4-6.2 24.6-8.3"/><path fill="#f09" d="m793.2 566.8-42-19.9c-1.4-1.8 5.2-7.7 6.6-9.8 11.9-17.2 6.1-39-10.8-50.3l-10.5-137.3-35.7 38.4c-8.6 2.5-10.8 6.1-13.8 14.4l-84.8 92-197.7-47.6 99.8 177.9-102.6 159.9a330 330 0 0 1-69.2-35.6C238 684 186 564.8 205.7 451.4c36-207.7 270-315.6 451-206.7 108.1 65 166.7 198.8 136.5 322Zm-142-279c-47.7-8.7-57.2 70.7-4.7 70.5 40.5-.2 48.7-62.4 4.7-70.5m-151-26.7c-41.7-8.2-57.9 55.4-17.3 68.8 46.2 15.2 67.8-59 17.4-68.8m-92-3.3c-8.8-1.3-23.7 13-28.2 20-4 6-11.7 18.4-3.1 23.7 11.3 7 15.2-9.7 20.8-16.2 4-4.8 14.7-9.7 16.3-12.4 3.6-5.7 1.4-14-5.8-15.1M602.4 413c-12.2-3.2-33.6 2.3-43.7 9.6-9.9 7.2-8 20.3 4.3 19.7 3.2-.1 13-7.2 18-8.8 7.6-2.3 17.3 0 22.7-2.1 9-3.6 7.5-16-1.3-18.4m-271.6-91a35.8 35.8 0 0 0-45.6 42.2 35.7 35.7 0 0 0 54.4 21c24.1-16.4 19-54.4-8.8-63.3m153 54.5c-5.6-.8-17.2 6.9-21.6 10.6-6.4 5.5-24.8 25.6-14.5 33.2 12.7 9.4 17.8-9.4 25.4-16.7 4.2-4 15.4-8.9 17-11 4.9-6.6 1.9-15-6.2-16M281 443.8a37 37 0 0 0-31.7 12.7c-26.2 32.8 15 75 47.8 51.5 26.7-19 16-58.3-16.1-64.2M391 498.3c-8.3-1.2-13.9 8.5-9 15.2 3.5 5 10.5 7.8 14.9 14.3 5 7.4 8 29.7 21.3 21 8.9-5.8 1.7-21.3-2.5-28.5s-16.5-20.7-24.7-22Zm-116.8 70.4c-7.9-1-12.6 7.7-9.3 14.5 5.1 10.9 29.7 26 41.6 24.9 9.9-1 11.7-16 1.7-19.8-3.8-1.5-7.1-1.1-11.6-3.3-8.1-3.8-16-15.6-22.4-16.3Zm102 140.4c40.2-19.4 14.2-81.6-28-65.1-45.5 17.8-15 85.8 28 65"/><path fill="#f09" d="m861.8 598-46.2-22.7c31.1-132.8-27-275.6-143.1-347.4-193.6-119.7-444.7-7.8-487.4 214.8C152.5 612.5 266.4 781 435.4 817a321 321 0 0 0 194.9-21l33.4 40.1c-.2 1.6-20.9 10.4-24 11.7-216 86.8-447.2-38.9-501-262.3C65.9 281.8 383.2 34 662.4 166 821.6 241.4 909 427.8 861.8 598"/><path fill="#ffd400" d="m866.3 631.9-144.4 58.4-17.6 152.3-98.8-117.8-151.3 29.6 82.3-128.8-76-136.7 150.6 36.5L714.5 414l11.6 152z"/><path fill="#f09" d="M615.4 777.6c-8.3 2-16.4 5.8-24.6 8.3a302 302 0 0 1-166.7 3.5l171.5-36.5 19.6 22.2z"/><path d="M319.6 320.4a35.8 35.8 0 0 1 29.7 56.9 36.4 36.4 0 0 1-59-2 35.8 35.8 0 0 1 29.3-54.9M269.2 441.5a36.8 36.8 0 0 1 36.4 57.7c-23.2 34.3-76 7-62.2-34.2 3.6-10.6 15-21.7 25.8-23.5M387.2 703.7c-33.8 34.7-85.1-20.9-48-53.7 34.4-30.3 79.5 21.2 48 53.7M639.8 286.9c44.2-7.2 57 56 18.8 69.9-49.5 18-66.7-62.2-18.9-70M488.5 261.5c50.8-7.4 55 69.8 6.3 70.7-42.7.8-48.4-64.6-6.3-70.7M390.9 498.7c8.2 1 20.8 14.4 25.1 21.4 4.4 7.2 11.9 22.5 3.2 28.5-13.1 9-16.7-13.2-21.8-20.5-4.5-6.5-11.6-9-15.3-14-5-6.7.4-16.5 8.8-15.4M602 413.5c8.9 2.3 10.5 14.7 1.5 18.4-5.3 2.2-15 0-22.6 2.3-5 1.6-14.8 8.8-18 9-12.3.6-14.3-12.5-4.4-19.7s31.3-13.1 43.6-10M483.3 377c8.1 1.2 11.1 9.5 6.2 16-1.6 2.3-12.8 7.2-17 11.1-7.6 7.3-12.7 26.1-25.4 16.7-10.2-7.6 8.1-27.7 14.5-33.2 4.4-3.7 16-11.4 21.7-10.6M273.5 568.6c6.4.7 14.3 12.5 22.5 16.2 4.5 2 7.7 1.7 11.6 3.2 10 3.7 8.3 18.8-1.5 19.8-12 1.1-36.6-13.7-41.9-24.6-3.3-6.8 1.4-15.4 9.2-14.6ZM408.5 258.2c7.1 1 9.5 9.3 6 15.1-1.7 2.6-12.3 7.7-16.2 12.5-5.5 6.7-9.2 23.5-20.7 16.6-8.6-5.3-1-17.8 2.9-23.8 4.4-7 19.2-21.6 28-20.4"/><path fill="#f09" d="M471.6 7c332.6-19.3 589.7 279.9 515.6 606.2-71 312.4-425.1 480-712.3 333.4C-179.4 714.8-40.7 36.7 471.6 7m7.8 26C124.2 49.2-87.7 422.5 86.7 735.1c188 336.8 689.5 311.2 845.1-39.8A469.7 469.7 0 0 0 479.4 32.9"/><path d="m648.8 527.7 1.9 3.9c1.4 2.7 7.3 19.1 8 19.7.2 0 3.5-.4 3.6-.6.5-.5-4.8-10.9-4.5-13.2 3.4-1.1 5.7 6.2 7.5 8.5 2.4.5-2-12.5 2.2-8.7 4.1 3.6-.8 16.6 14.5 11.3 4.4-1.5 16.3-12.4 19.3-7.6-.8 6-6.9 7.4-10.2 10.5-4.4 4-8.4 8.7-13 12.3l16.7 73.8c7 3 52.5 9.4 54.7 13.2 4 7-11 .6-13.1.3-11.5-1.2-25.7 2-38.1 1.6-1.4 0-4-2-6.2-.4.9 4-.2 8-.2 12.1 0 1 1.1 1.6 1.1 1.7.2 8.9-.2 17.5.6 26.5.5 6.1 2.1 12.8 3 19 .4 2.8-.4 6.7.6 11.2-2 2.4-.8 6-1 8.5-1 7-3.6 15.1-3.6 22.6.1 6.2 5 16.1-2.6 16.2-4.2-20.5-3.1-40.5-7.2-61.2-1.5-7.4-4.4-14.7-6-22-.5-1.8-.5-3.7-1-5.5-1.6-6.9-4-13.9-5.7-20.8-2.2-9.1 0-18.9-8.6-23-1.8-.9-4.4-1.2-6.4-1.8q-11.2-3.2-21.8-5.7c-5.2-1.2-20.6-6.2-24.7-5-2.9.7-3.9 3.9-5.8 4.8-2.6 1.2-4.9-.2-6.8.4-11.8 3.6-22.4 20.8-31.3 25.9-3.1 1.7-6.1 1.6-9 3.2-2.5 1.6-6 8.8-8 11.7-.3 0-1.4 1.7-2.7 1.8-2 0-3.5-2-5-1.7-2 .5-8.2 9.2-6.5 10.6l8-7c2 .6-.4 5.3-.8 5.9-.3.2-4.6 4.4-5.4 5-1 .9-4.3 3-5.5 3.7-1.8 1-3.7 3.3-3.7-.1 0-5.7 3.7-7.4 4.4-10.5.6-2.4-5.7-1.8-2.1-6 8.2.5 8.6-11.5 10.9-17.6 1.4-3.8 5.7-7.4 5.3-11.5l30.9-29.5c0-4.2-20-10.4-24-11.6-1.4-.4-2.9.2-3.7 0-1.5-.5-3 .2-4.4-.6-2.8-1.6-2.6-3.3-3.9-5.1 15.9-1.2 30.4 12.3 46.3 9.3 17.7-13.8 34.3-29.7 52.5-42.9 3.7-2.7 8.5-4.2 11.5-6.4 4.4-3.3 2.6-8.2.2-13-1.1-2.3-3.7-5.5-5.1-10-.6-1.8-4.2-9.3-1-9.6.3 0 4.7 3.1 4.9 3.4Zm16 31c-1.3-1.2-8 6-4.6 9.1 1.6 1.6 6.8-7.1 4.6-9m-23.8 8 .2 1.4q1-.9-.2-1.4m-1.6 1.7-48.9 40c4.3-1 8.9-.5 12.7-3.1 7.7-5.2 17.2-19.3 26.3-24.2zm16.5 4.1-2.2-6.4c-13.1 8-19 24-30.7 34.2l-4.3 7.7zm16 45.2c.3 3.6-.8 11.9 2.6 14.7.7.6 1.8-.2 2.1 0 1.7.9 3 3 5.2 2l-11.2-62.6-.9 16.4c1 10 1.1 19.6 2.1 29.6Zm-5.6-42.4c-6.6 2.2 0 15.2-.3 21l1.3-12.5zm-.6 50.4c1.1-14.5-2.2-29.5-5.8-43.8-14.8 7.3-25.8 23.6-40 33 0 3.8.6 2 2.1 2.4 6.6 1.8 13.3 3.1 19.9 5.2 3.4 1.1 23.1 9.2 24.5 7.3 0-1.3-.8-3-.7-4M626 591.5 603.4 612c2.4.1 5 1.6 7.2-.4zM585 620.4c-5.6-6.3-16.3 4.9-21 9.2a59 59 0 0 0-18.5 27.9c2.6 1.7 11.4-9.8 13.5-12s3.7-4.3 6-6.7c6.3-6.6 11.8-14.5 20-18.4m-18.4 26.2c-1.2 1.8-4.7 3.9-4 6.8 2.2-7.2 34.3-26.8 33.9-30-.6-5.2-12.2 3-13.7 4.1a90 90 0 0 0-16.2 19.1m111.1 1c-.6-.3-1.4-2.8-2.8-2.4 1.6 10.6 6.5 21.2 8.8 31.6.5 2.4-.5 6-.3 6.2 2.2 2 2.4-1.9 2.5-3.2.4-3.3.3-7.8.1-11.2-.1-2.3-1.8-17-2.2-17.9-1.9-4.7-4.4-2.5-6-3.2m40.2-2.2c-.5-.4-11-3-11.4-2.4-2.2 2.8 9.1 5 10.2 5.1 2.4.2 2-2.1 1.2-2.7m-31 67.8-1-14.5-6.5-17.8 2 13z"/></svg>