<?xml version="1.0" encoding="UTF-8"?><svg id="Capa_1" xmlns="http://www.w3.org/2000/svg" viewBox="0 0 1000 668.25"><path d="M443.68.01c-8.43,31.66-10.64,65.56-5.84,98.08.89,6.03,2.32,16.32,6.24,20.97,8.34,9.87,16.25.54,20.42-7.69,10.37-20.47,17.55-52.53,25.92-75.24,3.95-10.7,8.26-21.39,12.77-31.87,25.95,3.26,47.11,7.52,72.26,14.45-2.81,11.6-6.16,22.91-8.23,34.7-3.28,18.64-7.66,66.6.96,82.66,6.81,12.7,16.05,4.11,21.02-4.57,10.05-17.58,17.32-43.98,26.65-63.47,4.95-10.35,11.18-20.07,15.72-30.62,17.27,6.78,34.4,13.85,50.79,22.83,9.64-4.01,24.3-17.27,35.37-10.8,9.4,5.49,9.85,26.65,12.03,36.43,25.85,17.87,50.3,37.9,71.47,61.19.88.97,1,2.34,1.21,2.57-17.43,13.05-34.08,30.3-46.6,48.19-1.62,2.31-8.05,14.18-8.78,14.61-2.36,1.37-13.93-8.67-17.22-9.18-7.02,7.7-6.51,17.11-8.54,26.34-3.51,15.91-17.42,30.7-24.03,45.68-1.7,3.85-5.49,10.9-.57,13.68,10.07,5.71,23.34-11.09,30.53-16.88,4.53-3.64,19.11-16.4,16.35-1.5-1.68,9.1-26.89,36.1-33.78,45.28-4.57,6.08-26.98,33.84-7.28,32.74,12.34-.69,51.62-30.53,65.9-37.89,2.94-1.52,13.82-7.98,15.21-2.36,1.6,6.47-26.89,27.1-30.64,35.38-4.49,9.92,4.7,11.31,12.52,9.12,12.62-3.54,25.12-13.68,38.64-17.47,10.9-3.06,23.36-1.42,32.78-4.62,5.5-1.87,6.25-2.67,4.43-7.94-7.37-21.3-32.86-53.88-48.67-70.34-2.83-2.95-22.04-19.32-21.69-20.78.18-.75,11.24-7.22,13.03-8.26,17.27-10.05,36.1-16.86,54.13-25.36,1.42,2.42,3.75,5.2,5.25,7.93,20.63,37.69,33.97,79.26,39.04,122.05,28.71-2.32,58.26.51,85.78,9.02,11.49,3.55,35.83,9.41,31.22,25.26-4.26,14.63-36.28,43.37-48.66,54.2-22.13,19.35-46.99,35.61-73.32,48.67-17.47,80.56-74.77,128.55-146.41,161.33-21.15-16.73-33.22-41.69-26.36-68.86-.25-.25-5.04.56-5.95.85-21.17-22.67-36.22-52.78-44.43-82.66-11.47-41.75,3.52-43.79,22.87-73.65,9.47-14.63,6.4-18.74,9.03-34.33,1.11-6.6,4.65-12.73,4.88-19.34-5.51.62-10.16,3.55-15.83,4.14-7.1.74-14.92-.53-21.99.12-25.72,2.36-34.69,29.96-66.22,27.08-37.25-3.4-88.92-37.02-110.91-66.77-4.94-6.69-17.89-27.64-18.85-35.14,2.11-.48,1.71,1.14,2.39,2.24,4.79,7.72,10.25,16.05,17.15,22,5.06,4.37,26.13,18.74,31.53,11.1,4.21-5.95-3.51-11.04-6.37-15.01-8.58-11.93-15.57-25-20.05-39.03,12.16,5.53,25.74,3.89,38.67,5.11s22.09,4.37,32.51,11.7c4.78,3.36,13.79,13.27,18.31,14.84,10.65,3.7,5.44-8.67,3.32-13.52-6.13-14.07-16.79-35.34-29.64-43.47-13.99-8.85-29.6-15.23-44.2-22.99-9.96,8.02-19.03,17.94-26.31,28.66-5.53,8.14-17.72,28.17-17.32,37.52-2.28-.49-1.67,1.14-2.1,2.54-6.16,20.26-8.42,36.56-8.11,57.82-1.56-.58-2.45.53-3.4.85-.87.29-1.66.4-2.55.85-10.28,5.19-8.53,18.49,1.7,22.52-.86,1.91-10.09,1.04-11.69,10.41-1.46,8.55,2.68,12.79,9.99,15.96-10.84,5.15-10.86,19.76.15,24.51,2.13.92,4.43-.55,4.1,2.26-12.72,4.07-5.86,24.62,6.8,24.66-9.74,10.55-2.98,27.04,11.9,25.5-5.83,8.53-3.58,19.33,5.95,23.8-10.65,8.5-17.27,21.32-18.7,34.86-24.43-.81-47.61,4.36-71.41,5.95-3.36.22-6.83-.16-10.2,0v-.85c19.36-18.54,32.86-42.88,39.53-68.86,10.26-39.97,5.39-77.34-8.07-115.62-28.69-81.55-113.47-128.31-198.08-103.29-3.45,1.02-8.58,2.17-11.05,4.67,24.65-3.67,52.07-3.99,76.72.22,8.47,1.45,16.78,4.24,24.44,6.59,11.41,10.44,20.93,20.28,28.5,33.99,24.36,44.12,15.45,92.16-17.42,128.84-42.95,47.93-146.06,85.71-209.19,72.27-7.4-1.58-14.02-4.77-21.21-6.84,23.44,52.99,89.96,69.49,141.95,79.5-.6,4.2.94,8.22.92,12.34-.08,13.72-7.85,28.49-16.63,38.68l-19.14,17.84C65.11,582.13-8.31,484.12.75,355.37c18.12,1.81,37.72-1.21,55.43-5.35,7.41-1.73,23.43-5.68,29.15-9.95,4.31-3.21,6.39-6.98,3.72-12.22-3.63-7.12-34.8-16.33-43.55-20.21-11.74-5.21-22.75-11.98-33.7-18.58,6.19-23.67,13.96-43.62,24.65-65.46,5.52,3.28,11.71,6.69,17.63,9.15,15.29,6.37,52,17.95,67.43,13.42,4.01-1.18,6.67-4.69,5.53-8.99-2.63-9.88-23.01-18.46-31.34-23.95-13.01-8.56-25.82-19.01-35.44-31.29,25.29-37.57,51.3-63.43,87.56-90.11,8.94,14.67,19.05,29.47,29.78,42.91,8.72,10.93,33.44,39.35,46.12,43.14,7.47,2.23,13.61-1.33,14.16-9.24.69-9.94-9.94-27.26-13.94-36.88-9.75-23.46-17.72-50.1-18.31-75.63,26.93-13.76,49.01-23.18,78.21-32.31,1.71,11.55,5.57,23.25,9.57,34.22,9.45,25.94,28.46,65.07,49.93,82.69,10.38,8.52,24.39,10.93,23.87-6.82-.33-11.18-8.51-30.34-10.87-42.73-5.26-27.53-4.59-56.65-1.08-84.36C385.67,1.95,412.77-.2,443.68.01ZM666.42,132.64c8.34,8.07,13.8,20.16,17.86,31.01,3.28,8.79,4.98,18.34,8.91,26.78,4.32,0,11.19-27.59,12.08-32.11,4.03-20.59,7.19-49.53,4.4-70.21-1.35-9.98-3.68-14.08-14.72-12.38-21.99,3.4-70.88,59.31-84.14,78.23-1.19,1.7-10.63,15.36-9.85,16.07,19.48-.17,38.83,2.66,57.8,6.8-.08-9.91-5.83-18.62-8.08-28.03,10.58,5.56,15.34,17.39,22.53,26.34-.04-14.62-4.33-28.35-6.78-42.51ZM513.15,270.49c-4.89.77-7.19,8.03-7.41,12.21-.72,13.78,6.25,30.34,17.42,38.66,3.87,2.88,12.89,6.73,12.82-.86-3.44-8.35-8.22-16.87-11.34-25.27-1.69-4.55-5.79-22.21-8.37-23.94-.95-.64-1.94-.99-3.11-.8ZM587.35,372.37c1.98,1.97,6.24-6.35,6.95-7.92,9.17-20.23,3.44-43.56-12.06-58.81-2.22-2.18-16.18-13.66-18.69-11.48l13.1,17.07c7.1,10.92,13.15,27.19,13.31,40.3.04,3.64-3.35,20.09-2.61,20.83ZM639.8,295.19c-7.51,2.25-15.1,30.35-11.18,37.18,4.34,7.58,15.01-9.95,16.85-13.67,3.57-7.2,8.62-27.81-5.67-23.52ZM678.95,297.76c-8.91,2.37-19.62,28.22-18.54,36.82.63,5.01,4.99,6.23,9.15,3.96,8.97-4.9,20.87-26.14,17.93-36.13-.88-2.98-5.29-5.51-8.54-4.65ZM861.1,456.54c3.86-.2,7.39-2.4,10.77-4.11,25.23-12.75,83.88-54.23,96.22-78.91,2.51-5.02,4.15-9.15-.26-13.95-8.77-9.55-50.18-9.97-62.99-9.34-18.52.91-36.6,5.58-54.81,8.54.12.7-.18,2.31,0,2.53.52.62,12.85,3.48,15.51,4.48,9.52,3.58,24.15,10.96,32.02,17.28,1.12.9,10.51,9.11,4.92,7.84-12.95-2.95-26.51-11.34-40.55-10.88l13.15,9.37c5.44,4.49,9.23,10.28,12.36,16.54l-28.91-14.02c1.56,10.13,2.16,19.96,2.55,30.17.06,1.65.86,3.27.87,5.07.09,9.79-2.03,19.7-.88,29.37ZM727.45,360.73c-7.39.61-15.82,4.55-21.85,8.75-12.27,8.55-9.94,15.09,5.35,13.84,7.02-.57,28.2-6.45,30.1-14.14s-8.1-8.91-13.6-8.45ZM727.44,398.11c-15.19,1.4-46.03,21.45-9.61,19.32,6.73-.39,22.33-3.05,23.91-11.02,1.55-7.8-8.79-8.81-14.3-8.3ZM658.76,448.89h17.43c11.32,0,30.49,9.68,39.13,16.98,2.97,2.51,15.47,16.79,16.97,17.04,3.24.53-.1-6.92-.54-7.97-9.97-23.56-41.57-41.73-66.49-31.03-.84.36-8.13,3.56-6.5,4.98ZM794.65,521.02c-.11-14.64-10.43-26.64-22.03-34.23-5.84-3.82-17.45-11.29-23.41-13.99-2.6-1.18-9.04-4.16-10.95-.96-3.01,5.03,5.16,10.92,7.93,15.03,9.67,14.32,15.85,31.23,14.61,48.73l33.86-14.58ZM705.28,511.09c-6.25,1.79.48,12.65,2.81,15.57,4.92,6.17,22.3,18.6,30.13,18.34,1.95-.06,14.67-4.86,15.34-5.98,4.88-8.07-14.71-11.65-19.44-13.74-6.39-2.83-23.25-15.8-28.84-14.19ZM732.72,546.67c-.28-.29-6.23-2.37-7.54-3.09-2.87-1.57-8.2-6.01-11.18-5.09-5.14,1.6-3.58,12.45-2.49,16.64.86.61,17.8-5.69,20.02-6.69.77-.34,2.56-.33,1.19-1.77Z" fill="#96877e"/><path d="M838.14,198.1c-18.03,8.49-36.86,15.31-54.13,25.36-1.79,1.04-12.85,7.51-13.03,8.26-.35,1.46,18.86,17.84,21.69,20.78,15.82,16.46,41.3,49.04,48.67,70.34,1.82,5.27,1.08,6.07-4.43,7.94-9.42,3.21-21.88,1.57-32.78,4.62-13.52,3.79-26.02,13.93-38.64,17.47-7.82,2.19-17.01.8-12.52-9.12,3.75-8.28,32.24-28.92,30.64-35.38-1.39-5.62-12.27.84-15.21,2.36-14.28,7.36-53.55,37.2-65.9,37.89-19.7,1.1,2.71-26.66,7.28-32.74,6.89-9.18,32.1-36.18,33.78-45.28,2.76-14.91-11.82-2.15-16.35,1.5-7.19,5.78-20.46,22.58-30.53,16.88-4.92-2.79-1.13-9.83.57-13.68,6.6-14.98,20.52-29.78,24.03-45.68,2.04-9.24,1.53-18.64,8.54-26.34,3.29.52,14.85,10.56,17.22,9.18.74-.43,7.16-12.29,8.78-14.61,12.52-17.89,29.17-35.14,46.6-48.19,14.79,16.58,24.44,29.3,35.71,48.46Z" fill="#766c63"/><path d="M476.83,574.71c1.42.53,2.68,1.16,4.25,1.7,11.37,3.89,23.77,7.64,35.71,9.35-9.95,26.61-7.99,54.54-.85,81.61-6.35-.46-12.69-.83-18.99-1.84s-17.63-4.85-23.13-4.99c-9.86-.25-27.73,4.3-39.08,5.12-11.16.8-22.39.72-33.57.86l10.98-30.04c-19.35-12.96-46.68-30.74-47.54-56.67-.89-26.85,20.39-39.07,45.1-34.47,21.05,3.91,45.38,21.32,67.12,29.37Z" fill="#756c63"/><path d="M651.11,573.01c1.83,1.05,1.56.67,1.37,2.54-.66,6.26-3.15,13.26-3.91,20-2.22,19.79.63,38.21,5.09,57.37-44.87,11.08-91.32,17.82-137.72,14.45-7.14-27.08-9.1-55,.85-81.61,11.92,1.71,28.38,2.34,40.42,1.74,9.07-.45,19.87-3.39,28.44-3.44,7.44-.04,9.86,5.04,18.46.18,5.35-3.02,8.28-9.53,7.9-15.48,7.29.97,16.25,6.54,23.42,6.83,3.32.14,12.02-1.76,15.69-2.58Z" fill="#96887f"/><path d="M364.61,579.81c.86,25.93,28.18,43.71,47.54,56.67l-10.98,30.04c-48.17.59-91.67-3.84-138.57-13.6,7.95-27.88,8.29-57.17,0-85.01,33.85,5.06,67.86,9.17,102.02,11.9Z" fill="#96887f"/><path d="M355.26,6.82c-3.5,27.71-4.18,56.82,1.08,84.36,2.37,12.39,10.55,31.55,10.87,42.73.52,17.75-13.49,15.34-23.87,6.82-21.47-17.62-40.48-56.75-49.93-82.69-4-10.96-7.86-22.66-9.57-34.22,24.53-7.67,45.93-12.93,71.41-17Z" fill="#766c63"/><path d="M503.19,4.27c-4.51,10.47-8.82,21.16-12.77,31.87-8.38,22.72-15.55,54.77-25.92,75.24-4.17,8.22-12.08,17.56-20.42,7.69-3.92-4.64-5.35-14.93-6.24-20.97-4.79-32.52-2.59-66.42,5.84-98.08,21.1.15,38.89,1.66,59.51,4.25Z" fill="#766c63"/><path d="M205.64,56.12c.59,25.54,8.56,52.18,18.31,75.63,4,9.62,14.63,26.94,13.94,36.88-.55,7.91-6.69,11.47-14.16,9.24-12.68-3.79-37.39-32.22-46.12-43.14-10.73-13.44-20.83-28.23-29.78-42.91,20.58-15.14,35.06-24.08,57.81-35.71Z" fill="#766c63"/><path d="M262.6,567.91c8.29,27.85,7.95,57.14,0,85.01-28.61-5.96-54.46-12.8-81.61-23.8l19.14-17.84c8.78-10.18,16.55-24.96,16.63-38.68.02-4.13-1.52-8.14-.92-12.34,15.46,2.98,31.18,5.32,46.76,7.65Z" fill="#756c63"/><path d="M698.72,558.56c.91-.29,5.69-1.1,5.95-.85-6.87,27.16,5.21,52.13,26.36,68.86-26.43,12.1-49.24,19.41-77.36,26.35-4.46-19.17-7.31-37.59-5.09-57.37.76-6.74,3.24-13.74,3.91-20,.2-1.87.46-1.48-1.37-2.54,16.03-3.59,32.13-9.59,47.61-14.45Z" fill="#756c63"/><path d="M631.56,37.42c-4.53,10.55-10.76,20.27-15.72,30.62-9.33,19.49-16.6,45.89-26.65,63.47-4.96,8.68-14.2,17.27-21.02,4.57-8.62-16.07-4.25-64.02-.96-82.66,2.08-11.79,5.42-23.1,8.23-34.7,19.49,5.37,37.32,11.32,56.11,18.7Z" fill="#766c63"/><path d="M.75,355.37c1.58-22.43,5.38-44.61,11.05-66.31,10.95,6.6,21.96,13.38,33.7,18.58,8.76,3.88,39.92,13.09,43.55,20.21,2.67,5.24.59,9-3.72,12.22-5.73,4.27-21.74,8.22-29.15,9.95-17.71,4.14-37.32,7.16-55.43,5.35Z" fill="#766c63"/><path d="M36.46,223.6c7.44-15.2,14.33-27.59,23.8-41.66,9.62,12.29,22.43,22.73,35.44,31.29,8.33,5.48,28.7,14.06,31.34,23.95,1.14,4.29-1.52,7.81-5.53,8.99-15.42,4.54-52.14-7.04-67.43-13.42-5.92-2.47-12.11-5.88-17.63-9.15Z" fill="#756c63"/><path d="M401.17,344.32c13.47,38.28,18.33,75.65,8.07,115.62-6.67,25.98-20.17,50.33-39.53,68.86l-.83.43.83.43c3.37-.16,6.84.22,10.2,0,.88,1.41,3.23.85,4.66.86,23.89.25,71.1-6.93,90.5,7.27,6.08,4.45,1.93,5.21.03,10.12-3.73,9.62-3.88,17.89,1.73,26.8-21.74-8.05-46.07-25.46-67.12-29.37-24.71-4.59-45.99,7.63-45.1,34.47-34.16-2.73-68.16-6.84-102.02-11.9-15.58-2.33-31.29-4.68-46.76-7.65-51.99-10.01-118.52-26.51-141.95-79.5,7.19,2.07,13.8,5.26,21.21,6.84,63.13,13.44,166.23-24.34,209.19-72.27,32.87-36.68,41.78-84.72,17.42-128.84-7.57-13.71-17.09-23.55-28.5-33.99,41.42,12.68,79.2,39.18,100.46,77.64,2.55,4.61,4.3,10.02,7.51,14.17Z" fill="#eae5d2"/><path d="M457.28,277.16c.01.28-.04.57,0,.85.96,7.49,13.91,28.45,18.85,35.14,21.99,29.75,73.66,63.37,110.91,66.77,31.52,2.88,40.49-24.72,66.22-27.08,7.06-.65,14.89.62,21.99-.12,5.67-.59,10.32-3.52,15.83-4.14-.23,6.6-3.77,12.74-4.88,19.34-2.63,15.59.45,19.7-9.03,34.33-19.34,29.86-34.34,31.9-22.87,73.65,8.21,29.89,23.27,60,44.43,82.66-15.48,4.86-31.57,10.87-47.61,14.45-3.67.82-12.36,2.72-15.69,2.58-7.17-.3-16.14-5.86-23.42-6.83-.72-11.07-10.33-16.36-20.63-14.26-3.58.73-5.04,4.11-8.27,4.9.35-8.87-9.08-15.06-17.41-14.47-3.12.22-5.21,2.04-8.09,2.57,1.35-12.63-7.74-20.11-20.01-18.72-.82.09-5.78,1.44-6.35,1.73,1.37-2.67,2-5.48,1.7-8.5-4.55-1.11-3.47,2.77-5.25,6.22-1.15,2.25-3.4,3.71-4.1,4.83h-2.55c1.09-3.49,4.42-4.93,5.05-8.98,2.22-14.38-6.33-22.28-20.35-19.93,3.54-13.23-5.11-22.87-18.7-20.4-.01-1.2.59-2.26.85-3.4l10.2-.85c1.02-1-12.2-22.11-13.74-24.93-10.54-19.2-17.39-36.45-25.36-56.68-.69-1.76-.07-1.94-1.7-4.25-.27-4.22-1.68-8.64-3.17-12.57-.63-1.66.55-2.67-1.93-1.03.39-4.55-1.21-8.4-1.7-12.75-.01-.09.77-.62.72-1.25-.15-1.9-.37-5.54-2.42-4.7.04-.27,0-.57,0-.85.13-5.91-1.51-14.32-1.7-21.25-.02-.57,0-1.13,0-1.7-.31-21.26,1.95-37.56,8.11-57.82.42-1.4-.18-3.02,2.1-2.54ZM574.6,458.24c6.28.79,12.89-1.81,19.08-.81,3.7.6,6.77,5.37,11.55,3.86,9.38-2.97-4.66-21.23-8.1-25.17-3.67-4.21-17.36-18.37-23.19-12.54-2.12,2.12,1.05,12.03.68,16.42-.32,3.83-3.64,10.92-2.58,13.99-9.04,8.25-24.45,5.8-31.83-3.46l-6.01-12.7c-4.04.54-1.69,9.34-.83,11.88,3.58,10.61,17.82,17.14,28.45,17.03-3.54,14.66,7.99,32.63,24.22,30.6.74.02.57-1.82.43-2.13-.34-.75-9.95-4.53-12.36-7.19-5.32-5.85-7.64-18.62-3.32-25.5.83-1.31,3.62-3.04,3.79-4.29Z" fill="#eae5d2"/><path d="M861.1,456.54c-1.15-9.67.97-19.59.88-29.37-.02-1.81-.81-3.43-.87-5.07-.39-10.21-1-20.04-2.55-30.17l28.91,14.02c-3.13-6.26-6.92-12.06-12.36-16.54l-13.15-9.37c14.04-.46,27.6,7.93,40.55,10.88,5.59,1.27-3.8-6.94-4.92-7.84-7.87-6.32-22.5-13.7-32.02-17.28-2.66-1-15-3.86-15.51-4.48-.19-.22.11-1.84,0-2.53,18.21-2.96,36.29-7.63,54.81-8.54,12.81-.63,54.21-.21,62.99,9.34,4.41,4.8,2.77,8.93.26,13.95-12.34,24.68-71,66.16-96.22,78.91-3.38,1.71-6.91,3.91-10.77,4.11Z" fill="#d49b8d"/><path d="M666.42,132.64c2.46,14.15,6.75,27.88,6.78,42.51-7.19-8.94-11.95-20.78-22.53-26.34,2.25,9.42,8,18.13,8.08,28.03-18.97-4.14-38.32-6.97-57.8-6.8-.78-.72,8.66-14.37,9.85-16.07,13.26-18.93,62.16-74.83,84.14-78.23,11.04-1.71,13.37,2.4,14.72,12.38,2.8,20.68-.36,49.62-4.4,70.21-.89,4.53-7.76,32.11-12.08,32.11-3.93-8.44-5.63-17.99-8.91-26.78-4.06-10.85-9.52-22.95-17.86-31.01Z" fill="#d69b8a"/><path d="M457.28,277.16c-.4-9.35,11.79-29.38,17.32-37.52,7.28-10.72,16.35-20.64,26.31-28.66,14.6,7.76,30.21,14.14,44.2,22.99,12.85,8.13,23.52,29.4,29.64,43.47,2.11,4.85,7.32,17.22-3.32,13.52-4.51-1.57-13.53-11.48-18.31-14.84-10.42-7.33-19.86-10.51-32.51-11.7s-26.51.42-38.67-5.11c4.47,14.03,11.46,27.1,20.05,39.03,2.86,3.98,10.57,9.06,6.37,15.01-5.4,7.64-26.47-6.74-31.53-11.1-6.9-5.95-12.36-14.28-17.15-22-.68-1.1-.29-2.72-2.39-2.24-.04-.28.01-.57,0-.85Z" fill="#766c63"/><path d="M401.17,344.32c-3.2-4.15-4.96-9.56-7.51-14.17-21.26-38.47-59.04-64.97-100.46-77.64-7.66-2.34-15.97-5.14-24.44-6.59-24.65-4.21-52.07-3.9-76.72-.22,2.47-2.49,7.6-3.65,11.05-4.67,84.61-25.02,169.39,21.74,198.08,103.29Z" fill="#796f65"/><path d="M794.65,521.02l-33.86,14.58c1.24-17.51-4.94-34.42-14.61-48.73-2.78-4.11-10.95-10.01-7.93-15.03,1.92-3.2,8.36-.22,10.95.96,5.96,2.7,17.57,10.17,23.41,13.99,11.6,7.59,21.92,19.59,22.03,34.23Z" fill="#766c63"/><path d="M470.03,488.85c2.74,1.28,4.59.88,7.65.85.48,2.65-1.35,4.86-1.64,7.3-1.27,10.84,9.2,18.96,19.49,16.5.13,5.63-.82,10.95,1.7,16.15-3.78-.7-10.54,4.28-13.2,4.24-.77-.01-7.13-5.15-9.17-6.09-7.87-3.63-15.13-3.82-23.53-4.1,1.43-13.53,8.06-26.36,18.7-34.86Z" fill="#eae5d2"/><path d="M451.33,523.7c8.4.28,15.66.46,23.53,4.1,2.04.94,8.41,6.08,9.17,6.09,2.66.05,9.42-4.94,13.2-4.24v.85c-.97,1.36-3.14,4.51-3.4,5.95-13.63,7.84-14.78,25.97-12.75,39.96-1.57-.54-2.83-1.17-4.25-1.7-5.6-8.91-5.45-17.18-1.73-26.8,1.9-4.91,6.05-5.67-.03-10.12-19.4-14.2-66.6-7.02-90.5-7.27-1.44-.02-3.78.54-4.66-.86,23.8-1.59,46.99-6.76,71.41-5.95Z" fill="#d2cab6"/><path d="M441.13,339.22c.6,2.56-1.69,1.07-2.56,2.29-6.18,8.68-.91,20,10.21,18.96,0,.28.04.58,0,.85-.12.85-1.18,2.16-.85,3.4-10.56-4.56-20.37,8.93-12.8,17.48,5.27,5.94,10.29,3.53,16.2.38-1.43,3.35-2.43,2.49-5.1,4.68l3.4,2.12c-2.66-.21-9.81.15-11.67,1.93-.69.66-3.36,7.62-3.43,8.92-.48,8.97,12.77,15.65,18.96,7.88l4.64-5.98c-.47,4.92-3.13,6.68-5.95,10.19,13.33.52,16.81,16.02,7.65,24.65,7.78-.76,14.85,5.33,15.19,13.22.03.67-.73,1.11-.74,1.24-2.37-4.58-1.85-8.42-7.05-11.22-10.88-5.85-20.72,4.62-16.49,15.64,2.75,7.15,12.64,9.61,18.39,4.46l5.15-7.17c-.5,2.97-.64,4.97-2.55,7.64,2.82.19,6.48-.9,8.5,1.71-.08-.01-.62.76-1.25.72-4.03-.25-5.19-1.45-9.54.81-12.19,6.33-5.52,26.6,9.12,22.72,7.27-1.92,10.65-12.02,7.59-18.48-.69-1.46-4.45-2.07-4.22-4.92,7.22,2.87,7.44,10.39,5.95,17-.26,1.13-.86,2.2-.85,3.4,13.59-2.46,22.25,7.18,18.7,20.4,14.02-2.35,22.57,5.55,20.35,19.93-.63,4.05-3.96,5.49-5.05,8.98h-1.7c-.31-.74-.67-2.28-.85-2.55,9.59-5.9,7.54-22.32-4.02-24.45-12.32-2.27-20.7,10.34-14.68,21.05v.85c-.98.85-1.77,1.45-2.55,2.55v-.85c-2.53-5.21-1.57-10.53-1.7-16.15-10.29,2.46-20.76-5.66-19.49-16.5.29-2.43,2.11-4.65,1.64-7.3-3.06.03-4.92.43-7.65-.85-9.53-4.46-11.78-15.27-5.95-23.8-14.89,1.54-21.64-14.95-11.9-25.5-12.66-.04-19.52-20.59-6.8-24.66-.32,2.73-4.34,4.8-4.93,9.16-.7,5.1,3.29,11.21,8.31,12.55,19.53,5.19,19.98-29.18-3.37-21.7.33-2.81-1.97-1.35-4.1-2.26-11.01-4.75-11-19.36-.15-24.51-7.31-3.16-11.45-7.4-9.99-15.96,1.6-9.37,10.83-8.49,11.69-10.41-10.23-4.03-11.98-17.33-1.7-22.52ZM488.5,485.64c-13.35,2.48-12.45,23.32-.14,25.25,21.55,3.38,22.09-29.32.14-25.25Z" fill="#ccc6bb"/><path d="M705.28,511.09c5.59-1.61,22.45,11.37,28.84,14.19,4.74,2.09,24.32,5.67,19.44,13.74-.68,1.12-13.39,5.91-15.34,5.98-7.84.26-25.21-12.17-30.13-18.34-2.33-2.92-9.06-13.78-2.81-15.57Z" fill="#766c63"/><path d="M513.15,270.49c1.17-.18,2.16.16,3.11.8,2.59,1.73,6.68,19.39,8.37,23.94,3.12,8.4,7.9,16.93,11.34,25.27.07,7.59-8.94,3.74-12.82.86-11.18-8.31-18.15-24.88-17.42-38.66.22-4.18,2.52-11.45,7.41-12.21Z" fill="#766c63"/><path d="M658.76,448.89c-1.64-1.42,5.66-4.62,6.5-4.98,24.92-10.7,56.52,7.47,66.49,31.03.44,1.04,3.78,8.5.54,7.97-1.5-.25-14-14.53-16.97-17.04-8.63-7.3-27.81-16.98-39.13-16.98h-17.43Z" fill="#31261e"/><path d="M678.95,297.76c3.25-.86,7.66,1.67,8.54,4.65,2.94,9.98-8.96,31.23-17.93,36.13-4.16,2.28-8.53,1.05-9.15-3.96-1.08-8.59,9.63-34.45,18.54-36.82Z" fill="#766c63"/><path d="M587.35,372.37c-.75-.74,2.65-17.2,2.61-20.83-.16-13.11-6.21-29.38-13.31-40.3l-13.1-17.07c2.52-2.18,16.48,9.3,18.69,11.48,15.5,15.25,21.23,38.58,12.06,58.81-.71,1.57-4.97,9.88-6.95,7.92Z" fill="#31261e"/><path d="M727.45,360.73c5.5-.46,15.54.64,13.6,8.45s-23.09,13.57-30.1,14.14c-15.29,1.25-17.62-5.3-5.35-13.84,6.03-4.2,14.46-8.14,21.85-8.75Z" fill="#756c63"/><path d="M727.44,398.11c5.52-.51,15.85.5,14.3,8.3-1.58,7.97-17.18,10.62-23.91,11.02-36.42,2.13-5.58-17.91,9.61-19.32Z" fill="#766c63"/><path d="M639.8,295.19c14.29-4.29,9.24,16.32,5.67,23.52-1.84,3.72-12.51,21.25-16.85,13.67-3.91-6.83,3.68-34.93,11.18-37.18Z" fill="#766c63"/><path d="M732.72,546.67c1.37,1.44-.42,1.43-1.19,1.77-2.22,1-19.15,7.3-20.02,6.69-1.1-4.19-2.66-15.05,2.49-16.64,2.98-.92,8.31,3.52,11.18,5.09,1.32.72,7.26,2.8,7.54,3.09Z" fill="#796f65"/><path d="M443.68,338.37l3.4.85c.19,6.93,1.83,15.34,1.7,21.25-11.12,1.04-16.39-10.28-10.21-18.96.87-1.22,3.16.27,2.56-2.29.89-.45,1.68-.56,2.55-.85Z" fill="#f0eee2"/><path d="M447.08,337.52c0,.57-.02,1.13,0,1.7l-3.4-.85c.95-.32,1.84-1.43,3.4-.85Z" fill="#ccc6bb"/><polygon points="369.71 529.65 368.88 529.23 369.71 528.8 369.71 529.65" fill="#d2cab6"/><path d="M493.83,536.45c-.49,2.73-.25,10.92.2,13.82.37,2.35,7.16,19.9,8.26,20.64,5.59,3.77,28.38-4.51,33.19-9.81,5.76,1.8,10,.51,15.29-1.7.3,16.08,16.71,24.79,29.33,13.61l5.54,11.05c-8.58.04-19.38,2.98-28.44,3.44-12.04.6-28.49-.03-40.42-1.74-11.93-1.71-24.33-5.46-35.71-9.35-2.03-13.99-.88-32.11,12.75-39.96Z" fill="#eae5d2"/><path d="M531.24,530.5c.57-.28,5.53-1.63,6.35-1.73,12.27-1.39,21.36,6.09,20.01,18.72,2.88-.53,4.97-2.35,8.09-2.57,8.33-.59,17.76,5.61,17.41,14.47,3.22-.79,4.68-4.17,8.27-4.9,10.31-2.1,19.91,3.19,20.63,14.26.39,5.95-2.55,12.46-7.9,15.48-8.6,4.86-11.01-.22-18.46-.18l-5.54-11.05c-12.62,11.18-29.03,2.47-29.33-13.61-5.29,2.21-9.53,3.5-15.29,1.7.44-.49,1.63-1.59,1.7-1.7,11.96,1.64,20.76-7.4,17.28-19.41-3.23-11.14-20.28-12.84-24.93-1.85-1.38-.18-2.86.14-4.25,0,2-1.82,3.74-6.55,5.95-7.65ZM565.03,547.7c-18.71,2.96-11.74,35.81,8.91,25.93,13.78-6.6,7.37-28.5-8.91-25.93ZM594.8,556.19c-15.61,2.27-15.47,27.76,1.47,27.88,19.42.14,17.47-30.63-1.47-27.88Z" fill="#ccc6bb"/><path d="M574.6,458.24c.32-2.43-2.42-3.88-2.55-4.25-1.05-3.07,2.26-10.16,2.58-13.99.37-4.39-2.79-14.3-.68-16.42,5.82-5.83,19.51,8.33,23.19,12.54,3.44,3.94,17.48,22.21,8.1,25.17-4.78,1.51-7.85-3.26-11.55-3.86-6.2-1-12.8,1.59-19.08.81Z" fill="#d6a696"/><path d="M574.6,458.24c-.17,1.25-2.96,2.98-3.79,4.29-4.32,6.88-2,19.65,3.32,25.5,2.42,2.66,12.02,6.44,12.36,7.19.14.31.31,2.14-.43,2.13-16.23,2.03-27.76-15.94-24.22-30.6-10.64.11-24.87-6.43-28.45-17.03-.86-2.54-3.22-11.34.83-11.88l6.01,12.7c7.37,9.25,22.78,11.7,31.83,3.46.13.37,2.87,1.82,2.55,4.25Z" fill="#31261e"/><path d="M458.98,397.88c7.97,20.24,14.82,37.48,25.36,56.68,1.55,2.82,14.77,23.93,13.74,24.93l-10.2.85c1.49-6.62,1.26-14.13-5.95-17-.38-.15-.53-.67-1.7-.85-2.02-2.61-5.68-1.52-8.5-1.71,1.91-2.67,2.05-4.67,2.55-7.64.09-.51-.03-1.14,0-1.7,0-.13.77-.57.74-1.24-.35-7.89-7.42-13.98-15.19-13.22,9.16-8.64,5.67-24.14-7.65-24.65,2.82-3.51,5.48-5.28,5.95-10.19.08-.87.19-3.72,0-4.25h.85Z" fill="#96887f"/><path d="M447.93,364.72c.8.35,2.02,1.75,2.55,2.55.49,4.35,2.09,8.21,1.7,12.75-.08.95-.49,1.71-.85,2.55-5.91,3.15-10.93,5.57-16.2-.38-7.57-8.54,2.24-22.03,12.8-17.48Z" fill="#f0eee2"/><path d="M523.59,533.05c.7-1.12,2.94-2.59,4.1-4.83,1.78-3.46.7-7.33,5.25-6.22.3,3.02-.33,5.83-1.7,8.5-2.21,1.1-3.95,5.83-5.95,7.65-1.17-.12-.16,1.29-3.4-.85,1.48-.9,1.33-3.66,1.7-4.25Z" fill="#93534a"/><path d="M457.28,393.63c-1.21-1.71-2.48-2.62-4.25-3.4-1.65-.73-1.51-.7-3.4-.85l-3.4-2.12c2.67-2.19,3.67-1.33,5.1-4.68.36-.84.77-1.6.85-2.55,2.48-1.63,1.29-.63,1.93,1.03,1.5,3.92,2.9,8.35,3.17,12.57Z" fill="#96887f"/><path d="M521.04,533.05h2.55c-.37.59-.22,3.35-1.7,4.25-.18-.12-1.05.27-1.49-.18-.58-.59-.61-3-1.06-4.07h1.7Z" fill="#96877e"/><path d="M448.78,361.32c2.05-.84,2.27,2.8,2.42,4.7.05.63-.73,1.15-.72,1.25-.54-.8-1.75-2.2-2.55-2.55-.33-1.25.73-2.55.85-3.4Z" fill="#96887f"/><path d="M457.28,393.63c1.63,2.31,1.01,2.49,1.7,4.25h-.85c-.04-.12-1.23-.59-1.59-1.37-1.25-2.72-2.01-3.96-3.51-6.28,1.77.78,3.04,1.69,4.25,3.4Z" fill="#ccc6bb"/><path d="M518.49,530.5c.18.27.54,1.81.85,2.55.45,1.07.48,3.48,1.06,4.07.44.45,1.32.06,1.49.18,3.24,2.14,2.23.73,3.4.85,1.39.14,2.88-.18,4.25,0,10.78,1.4,12.93,13.18,7.65,21.25-.07.11-1.26,1.21-1.7,1.7-4.81,5.31-27.6,13.59-33.19,9.81-1.1-.75-7.9-18.29-8.26-20.64-.45-2.9-.69-11.09-.2-13.82.26-1.44,2.43-4.59,3.4-5.95.78-1.1,1.57-1.7,2.55-2.55.3-.26.57-.56.85-.85,3.63-1.47,7.32-2.43,11.3-1.52,1.25.29,5.96,4.02,6.55,4.92Z" fill="#bd3e28"/><path d="M488.5,485.64c21.94-4.08,21.41,28.63-.14,25.25-12.31-1.93-13.21-22.76.14-25.25Z" fill="#f0eee2"/><path d="M518.49,530.5c-.59-.89-5.3-4.63-6.55-4.92-3.98-.91-7.67.05-11.3,1.52h-.85c-6.02-10.71,2.37-23.33,14.68-21.05,11.56,2.13,13.61,18.56,4.02,24.45Z" fill="#f0eee2"/><path d="M480.23,462.49c1.17.18,1.32.7,1.7.85-.24,2.85,3.53,3.47,4.22,4.92,3.06,6.46-.32,16.55-7.59,18.48-14.64,3.88-21.31-16.39-9.12-22.72,4.36-2.26,5.52-1.06,9.54-.81.63.04,1.17-.74,1.25-.72Z" fill="#f0eee2"/><path d="M474.28,451.44c-.03.56.09,1.19,0,1.7l-5.15,7.17c-5.76,5.15-15.65,2.69-18.39-4.46-4.23-11.02,5.61-21.49,16.49-15.64,5.2,2.8,4.69,6.64,7.05,11.22Z" fill="#f0eee2"/><path d="M445.38,414.88c23.35-7.48,22.91,26.89,3.37,21.7-5.02-1.33-9-7.44-8.31-12.55.59-4.35,4.61-6.42,4.93-9.16Z" fill="#f0eee2"/><path d="M449.63,389.38c1.89.15,1.75.12,3.4.85,1.5,2.32,2.26,3.56,3.51,6.28.36.78,1.55,1.25,1.59,1.37.19.53.08,3.38,0,4.25l-4.64,5.98c-6.19,7.77-19.44,1.09-18.96-7.88.07-1.29,2.74-8.25,3.43-8.92,1.86-1.79,9.01-2.14,11.67-1.93Z" fill="#f0eee2"/><path d="M499.79,527.95v-.85h.85c-.28.29-.55.59-.85.85Z" fill="#d2cab6"/><path d="M565.03,547.7c16.28-2.57,22.7,19.33,8.91,25.93-20.65,9.88-27.62-22.97-8.91-25.93Z" fill="#f0eee2"/><path d="M594.8,556.19c18.94-2.75,20.89,28.01,1.47,27.88-16.94-.12-17.08-25.61-1.47-27.88Z" fill="#f0eee2"/><path d="M537.19,559.41c5.28-8.08,3.13-19.85-7.65-21.25,4.65-10.99,21.7-9.29,24.93,1.85,3.48,12-5.32,21.05-17.28,19.41Z" fill="#f0eee2"/></svg>