<svg xmlns="http://www.w3.org/2000/svg" viewBox="0 0 1000 1000"><path fill="#f09" d="m521.3 0 51.2 5c219 31 394.8 208.9 423.3 428.3l4 47.2c-.3 13.3.5 26.8 0 40a501 501 0 0 1-313.4 444c-289 115.5-611-57.8-675.3-360C-53.4 301.7 171.2 12.9 479.4 0zM170.2 847.4c276 261 733.2 112 801-260.2 62.1-340.5-246.4-633.4-583.5-552.3-366.1 88-492.6 552.3-217.5 812.5"/><path d="M170.2 847.4C-105 587.2 21.6 122.9 387.7 34.9c337.1-81.1 645.6 211.8 583.5 552.3-67.9 372.2-525 521.2-801 260.2m304.6-657c-1.7 4 .8 8.5 5 9.3 96.6 18.1 183.9 77 240.6 156.5a403 403 0 0 1 73.3 224.2 7.6 7.6 0 0 0 10.2 7l53.8-18.8c5.2-1.8 8.7-6.9 8.4-12.4-7-157.4-107.3-310.4-245.1-383.8-28.8-15.4-83.2-38.9-115-42.2M269.6 776.8l483.1-171.4a20 20 0 0 0 13.4-19c-.1-65.5-17.5-132-50.7-188.2a368 368 0 0 0-240.6-172 17 17 0 0 0-18.7 10l-52.5 124a20.4 20.4 0 0 0 19.4 28.3c25-.7 50 2.3 73.8 9.5a264 264 0 0 1 82.5 44.4 16 16 0 0 0 18.5.7l55.5-35a20 20 0 0 1 27.1 20.1c-1.1 19.5-15.7 48.3-15.7 67.5 0 18.4 13.7 46.3 15.6 65.5a20 20 0 0 1-29.2 20.4S595 545.8 595 545.8a11 11 0 0 0-11.7.2c-9.3 6.5-18.2 13.8-27.9 19.9a237 237 0 0 1-220.2 17.6 20.7 20.7 0 0 0-27.4 11.1l-63.9 155c-6.7 16.4 9 33 25.8 27.1Zm389.1-347-71.5 45.8h-.1c-34.3-30.1-74.5-55.4-120.4-63.1a240 240 0 0 0-90 2.7c19.8 38 27.2 79.6 15.6 121.4-3.8 13.5-10.8 25.7-15.5 38.6v.1c55.7 15.3 113.6 4.6 162.7-24.3a361 361 0 0 0 48.7-36l70.5 46.5.2-.1-15.7-65.7L659 430q0 0-.2 0Zm-380 39.6c-3.7 3.4-7.5 6.5-10.9 10.1a167 167 0 0 0-11.7 13.8c-1.4 3 .5 4.4 2 6.7 16.7 25 55.8 51.5 83.1 63.4 2.7 1.2 12.1 5.6 14 4.6 3-1.6 13.1-24.8 14.7-29.3 13-38.2 8.3-83.5-15.1-116.5h-.1a226 226 0 0 0-76 47.2"/><path fill="#f09" d="M243.8 750 308 594.4a20 20 0 0 1 26.8-11A237 237 0 0 0 555.4 566c11-6.8 20.9-15.3 31.5-22.3q2.3-1.4 4.7 0l58.3 37.2 3.3 1.7a20 20 0 0 0 27.2-21.3c-2-19.1-15.6-47-15.6-65.5 0-19.2 14.6-48 15.7-67.4V427c.1-15.6-17.6-24.9-30.9-16.5L598.2 443a17 17 0 0 1-19-.8 264 264 0 0 0-82.3-44.2c-23.8-7.2-49-10.2-73.9-9.5-14.8.5-25-14.5-19.3-28.1l51.4-121.6c3.8-9 13.4-14 23-12a368 368 0 0 1 237.4 171.4 375 375 0 0 1 50.8 188.2c0 8.5-5.5 16.2-13.5 19L269.3 777a20.3 20.3 0 0 1-25.5-26.8Z"/><path fill="#f09" d="M803.8 587.4a7.6 7.6 0 0 1-10.1-7c-2-80.3-26.7-159-73.3-224.2-56.5-79.2-143.4-138-239.5-156.3-4.8-1-7.6-6-5.7-10.4l22.7-54.6a8 8 0 0 1 8-4.7c31.9 3.3 86.3 26.8 115 42.2 137.9 73.4 238.2 226.4 245.2 383.8l.1 3.8c0 3.3-2 6.3-5.2 7.4z"/><path fill="#1d71b8" d="m659 429.8-15.7 65.9 15.7 65.9-70.8-46.6a361 361 0 0 1-48.6 36c-49.2 29-107 39.6-162.8 24.2 4.8-12.9 11.8-25 15.6-38.6 11.6-41.9 4.2-83.6-15.6-121.5 29.8-6.3 59.9-7.7 90-2.6 46 7.7 86.1 33 120.4 63.1z"/><path fill="#1d71b8" d="M278.8 469.4c22-20.6 47.7-36.8 76-47.2 23.5 33 28.2 78.3 15.2 116.5-1.5 4.5-11.6 27.7-14.7 29.3-1.8 1-11.3-3.4-14-4.6-27.3-12-66.4-38.5-83-63.4-1.5-2.3-3.5-3.8-2-6.8.8-1.8 9.5-11.4 11.6-13.7 3.4-3.6 7.2-6.7 10.9-10.1Zm47-5.2c-16.9 3.5-11.4 32.2 8.1 27.6 17.3-4 13-32-8.1-27.6"/><path d="M325.8 464.2c21.2-4.4 25.4 23.6 8.1 27.6-19.5 4.6-25-24.1-8.1-27.6"/></svg>