<svg xmlns="http://www.w3.org/2000/svg" viewBox="0 0 430.5 424.3"><path fill="#fa0394" d="M189.2 414.8c-12.1-2.3-24-4.3-35.8-7.8-77-23-136.8-89.6-147-170C-7 131 66.5 33 170.1 11.8c24.2-5 50.2-1.2 74.8-2.4a209 209 0 0 1 173.7 157c26 112-47.2 219.3-157.2 244.4l-20.5 4.1zM208.7 19C53.3 23.9-41.2 198.5 55.6 325.8 139 435.7 310 428.4 383.2 311.4c82.9-132.5-22.5-297-174.5-292.3"/><path fill="#040303" d="M208.7 16.5c154-4.8 260.7 162 176.8 296.2-74.2 118.6-247.4 126-332 14.6-98-129-2.3-305.9 155.2-310.8m2.2 59.8V61.8c0-1.4-2.8-.3-3.5-.3a151.2 151.2 0 0 0-141.3 191 156 156 0 0 0 142.4 112.7c.7 0 2.4-.1 2.4-.8v-14c-47-1-91-27-115.5-66.5a136 136 0 0 1-2-139.5A141 141 0 0 1 211 76.2Zm7.3 287c74-1.9 138-58.6 147.1-132.3A150 150 0 0 0 232.4 63.4c-4.7-.5-9.5-.5-14.2-1.1v15.1c28.4 1 56 10 79 26.7a134.5 134.5 0 0 1 7.9 210.7c-24 20.6-55 33.6-87 34zm-7.3-278.6c-15.7 0-29 9-43.1 14.1-19.6 7-30.6 6.4-46.5 22.4-12.2 12.3-13.8 23.2-20.5 38-5.4 11.8-13 22-15.5 35-3.2 16.3-1 36.6 3.4 52.5a131 131 0 0 0 122.1 94.8zm7.3 256.7c40.2-.3 79.2-22.1 102.5-54.3a127 127 0 0 0-29.3-178.3c-21.3-15-47-23.9-73.2-24z"/><path fill="#fa0394" d="M218.2 343V83.2c26.5.3 52.6 9.3 74.1 24.4A128.7 128.7 0 0 1 322 288a133 133 0 0 1-103.7 55m23.5-210.1c3 .4 8.4 0 11.6 0 2.8 0 0-9.6-.2-11.4-.2-3-.7-9.8 4.2-7.4 3.2 1.6-1.7 5.5 1.3 6 7.9 1.6 9-6.2 6.1-11.8-5.2-9.7-21.4-10.9-29.8-5-7.8 5.6-9.8 18.4 2.8 16.9.6-.6-2-3.2-.8-5.3.7-1.2 3.5-1.6 4.5-.2 2.5 3.5-2.2 15.5-1 17.5.5.1 1 .6 1.3.7Zm32.5 23.7c-4.7-7.8 1.1-17.1 10.3-15.8 1.8.3 2.5 2.1 4.2 0l2.4-4.5c0-2.6-8.9-3.1-10.8-3-6.5.7-12.3 6.2-14.2 12.3-.4 1.3-.8 5.9-1 6.2 0 .1-2.7 1.3-3.5 2a17.5 17.5 0 0 0 0 27.4c5.5 4.6 6 2.8 8.3-3.2-11.8-6.1-9.3-20.7 4.3-21.4Zm32-15.2c-10.7 2.2-9.9 19.2 1.1 20.9 16.7 2.5 16.4-24.5-1-20.9m-69.6 1.6c-16 1.6-10.6 26.1 4.7 20.6 11.4-4.1 7.3-21.8-4.7-20.6m43.4 47.4c9.7 1 17-9.1 12.4-18-.6-1.3-1-2.5-2.7-1.7-.6.3-4 3-4.2 3.3-.2.6 1.5 2.8 1.2 4.8-.8 5-5.5 4-6.1 4.8-.2.2-.4 5.8-.6 6.8m38.6 11.6c0 8.9 9 8.6 13.4 2.6 8.8-12-3.8-36.1-18.6-30.7-5.6 2-4.9 6-2.7 10.7 1.5.3 1.6-1.9 2.6-2.4 1.7-.9 4.3.8 4.2 2.7-.1 4.1-12.6 4.5-15.2 5.9-.7.4-1 .5-1.2 1.5 0 1 4 11.4 4.6 11.9 2.3 1.5 4.6-1.7 6.6-3 2.3-1.3 10.5-7 11.5-2 .5 3-2.8 4-5.2 2.8Zm-76.7-10c-.7-.4-4 .6-6-1.6-2.9-3.2 0-6.5-.5-7.4-.3-.6-5.3-3.7-5.6-3.4-7 9.9 2.3 22.1 13.8 19.2-.4-1-1.2-6.4-1.7-6.8m33.4 25.8c7.1-2 15.3 1.1 15.8 9.4 0 1.8-1.6 5.3-1.5 5.6.1.8 5.4 3.3 6.4 3 2.3-.8 2.2-10.1 1.9-12.3-.8-4.7-5.8-10.2-10.1-12-1.6-.8-4.7-1.1-5.6-1.9-1-.6-1.5-3-2.3-4-7-10.1-21.1-10.8-28.6-1-4.4 5.9-1.8 6.3 4.1 8 4-13 22.6-7.9 19.9 5.2Zm-19 21.2c9-2.4 5.5-12.1-2-14.1-12.8-3.5-29 10.7-25.2 24 1.9 6.3 9.6 8.4 12.9 2-5.2.1-4.4-7.1-.5-6 4.2 1.4 8 13.7 9.8 14 1.3.3 10.4-6.6 10.7-8.2.5-2.6-5.6-5.9-7.4-7.7-.6-.7-3-3.6-3.2-4.2-2.4-5.4 6.1-5.7 4.8.2m61.8 10.5c-.3.2 0 2.6.2 3.2 1.4 4.5 8 2.7 10.6 0 8.1-8.3 1.1-28.5-11.1-28.5-5.8 0-9.9 4.8-5.3 9.5 1.4-4 6.6-1.4 4.8 1.6-1.7 2.7-11 2.5-13.4 3.5-1.3.6-.5 2.7-.3 3.8s2.6 7.6 3.2 8c1.7 1.2 4.4-1.6 6-2.4s11-5.8 9.4 0c-.6 2-3.9 1.1-4.1 1.3Zm-37.7-5.7c-12.9 2.2-10.7 22.2 2.5 21.5 15-.7 12.5-24-2.5-21.5m-46.5 22.8c-10.2 1.7-10.7 18.9.5 20.8 16.5 2.8 17.8-24-.5-20.8m31.3 5.6c-.2-.2-6.2.2-7.4 0 .6 12.3 11.2 18.6 22.8 16.2 1-.3 2.5-1.4 3.4-1.3s3 2 4.3 2.4a17.9 17.9 0 0 0 24.5-20.4l-7.4.5c3 14.4-13.7 19.6-20.4 6.9l-3.4 3.4c-6 4.1-13.9 1.2-16.1-5.5-.3-.7-.2-2-.3-2.1m-16.4 50.2c2.9 7 10.3 4.5 12.2-1.8 3.9-12.5-11-24.8-23-23.5-8.5 1-15.4 10.6-5.3 15.2 1 0 .3-6.8 5-4.4 3 1.5-.8 6.4-2 7.9-1.6 1.8-6.7 5.4-7.2 6.6-.5 1-.4 1.5.2 2.4.3.5 8 6 8.9 6.5 1.2.6 2.4 1.2 3.3-.3 1.6-3 5.1-13.8 8.8-14.3 3.1-.4 3.5 6.4-.9 5.7m23.9-14.7c-.3.1-2.4 4.3-2.7 5-.3.5-.9.2 0 1 5.2 4.3 14.3 1.3 17.2-4.5.8-1.6 2.7-8.5 0-8.3l-5.1.6c-1 .7 0 5.1-3.9 6.7-2.6 1-4.9-1-5.5-.5M210.8 83.2V343A133 133 0 0 1 87.2 247c-4.4-16-6.7-36.6-3.5-53 2.6-13.2 10.3-23.6 15.7-35.5 6.9-15 8.5-26 20.8-38.4 16.1-16.3 27.2-15.6 47-22.7 14.4-5.1 27.8-14.3 43.6-14.3m-28.7 17c-13.4 2.3-13.6 24.3 1 26.3 20.8 2.7 20.8-30-1-26.3m-51.9 33.5c-18-.2-18 25.9-1 26.6 18 .9 19-26.4 1-26.6m53 39.4c-18.7 2.7-12 32.7 6.9 25.9 14.8-5.4 9.4-28.2-6.9-25.9m-78.7 4.2c-4.3.8-9 5.1-10.3 9.3-4.4 15 15.9 23.6 24 11.4 6.8-10.1-1.9-22.7-13.7-20.7Zm78.7 42.3c-18.2 2.6-12.1 32.3 6.9 25.8 14.7-5 10-28.2-6.9-25.8m-78.2 5.8c-6.8 1-12.2 7.9-11.3 14.7 1.5 12.8 19 16 25.2 5 5.5-9.9-2.8-21.3-13.9-19.7m32.8 51.7c-17.2 2.4-14 27.5 2.4 26.8 18.5-.7 16.1-29.3-2.4-26.8m49.1 25.4c-18.1 1.4-15.4 28.4 2.5 26.8 17.3-1.7 14.7-28.2-2.5-26.8"/><path fill="#fa0394" d="M210.8 75.8c-48 1.3-93.2 26.9-117.4 68.3a136 136 0 0 0 2 139.7 141 141 0 0 0 115.4 66.6v14c0 .7-1.7.8-2.3.8A156 156 0 0 1 66 252.4 151.4 151.4 0 0 1 207.4 61c.6 0 3.4-1 3.4.3zM218.8 363.4v-14.6c31.7-.4 62.7-13.4 86.5-34a135 135 0 0 0-7.8-210.7 141 141 0 0 0-78.7-26.7V62.3c4.7.6 9.5.5 14.2 1A150 150 0 0 1 365.3 231a153 153 0 0 1-146.5 132.4"/><path fill="#040303" d="M248.8 322.4c4.4.7 4-6.1 1-5.7-3.8.5-7.3 11.3-9 14.3-.8 1.5-2 1-3.2.3-.9-.4-8.6-6-8.9-6.5-.6-.9-.7-1.4-.2-2.4.5-1.2 5.6-4.8 7.1-6.6 1.3-1.5 5.2-6.4 2.1-8-4.7-2.3-4 4.5-5 4.5-10.1-4.6-3.2-14.3 5.4-15.2 11.8-1.3 26.8 11 23 23.5-2 6.3-9.4 8.8-12.3 1.8ZM241.7 132.9q-.5-.3-1.2-.7c-1.2-2 3.4-14 1-17.5-1-1.4-3.9-1-4.5.2-1.3 2 1.3 4.7.8 5.3-12.7 1.5-10.6-11.3-2.9-16.8 8.4-6 24.6-4.8 29.8 4.9 3 5.5 1.8 13.3-6 11.9-3-.6 1.8-4.5-1.4-6.1-4.8-2.4-4.4 4.4-4.2 7.4.1 1.8 3 11.3.2 11.3-3.2 0-8.7.5-11.6 0ZM256.2 239c1.3-5.9-7.2-5.6-4.8-.2.2.6 2.6 3.5 3.2 4.1 1.8 2 7.9 5.2 7.4 7.8-.3 1.6-9.4 8.5-10.7 8.3-1.8-.4-5.6-12.7-9.8-14-3.9-1.2-4.6 6 .5 5.8-3.4 6.5-11 4.4-12.9-1.9-3.8-13.3 12.4-27.5 25.1-24 7.6 2 11 11.7 2 14M318.6 202c2.4 1.2 5.7.3 5.2-2.7-1-5.1-9.2.6-11.5 2-2 1.2-4.3 4.4-6.6 2.9-.7-.5-4.7-11-4.6-12s.5-1 1.2-1.4c2.6-1.4 15.1-1.8 15.2-6 0-1.8-2.5-3.5-4.2-2.6-1 .5-1 2.7-2.6 2.4-2.2-4.7-2.9-8.6 2.8-10.7 14.7-5.4 27.3 18.7 18.5 30.7-4.3 6-13.4 6.3-13.4-2.6ZM318 249.5c.3-.2 3.6.8 4.2-1.4 1.6-5.7-7.8-.7-9.4.1s-4.3 3.6-6 2.4c-.6-.4-2.9-6.9-3.2-8s-1-3.2.3-3.8c2.4-1 11.7-.8 13.4-3.5 1.8-3-3.4-5.5-4.8-1.6-4.6-4.7-.5-9.6 5.3-9.6 12.2 0 19.2 20.3 11 28.6-2.5 2.7-9.1 4.5-10.5 0-.2-.6-.5-3-.3-3.2ZM265.2 272.2c.1.1 0 1.5.3 2.2 2.2 6.7 10 9.6 16 5.5l3.5-3.4c6.7 12.7 23.4 7.5 20.4-6.9l7.4-.5a17.9 17.9 0 0 1-24.5 20.4c-1.2-.5-3.5-2.4-4.3-2.5-.9 0-2.3 1.1-3.4 1.4-11.6 2.4-22.2-3.9-22.8-16.2 1.1.2 7.2-.2 7.4 0M275.3 217.9c2.7-13.2-15.9-18.4-19.9-5.3-6-1.7-8.5-2.1-4.1-7.9a17.5 17.5 0 0 1 28.6.8c.8 1.1 1.3 3.5 2.2 4.1 1 .8 4.1 1.1 5.7 1.8 4.2 1.9 9.3 7.4 10 12.1.4 2.2.4 11.5-1.8 12.3-1 .3-6.3-2.1-6.5-3 0-.3 1.7-3.8 1.6-5.6-.5-8.3-8.7-11.4-15.9-9.3ZM274.2 156.6c-13.6.7-16 15.3-4.3 21.4-2.4 6-2.8 7.8-8.4 3.2a17.5 17.5 0 0 1 0-27.4c.9-.7 3.5-1.9 3.6-2 .2-.3.6-4.9 1-6.2a18 18 0 0 1 14.2-12.2c1.9-.2 10.8.3 10.8 2.9 0 .2-2 4-2.4 4.4-1.7 2.2-2.4.4-4.2.1-9.2-1.3-15 8-10.3 15.8ZM280.4 243.9c15-2.6 17.5 20.7 2.5 21.4-13.2.7-15.4-19.3-2.5-21.5m.5 5.7c-4.8 1.1-4.8 8.8.6 9.8 8 1.6 8-11.7-.6-9.8M234 266.6c18.2-3.1 17 23.6.4 20.8-11.2-1.9-10.7-19.1-.5-20.8m1.5 5.2c-5.2 1.2-5.3 9.8 1 10 7.9.2 6-11.5-1-10M306.3 141.4c17.4-3.6 17.7 23.4 1 20.9-11-1.7-11.8-18.7-1-20.9m2.1 5.3c-6.1.9-5.8 11.7 2.4 9.8 5.8-1.3 3.8-10.7-2.4-9.8M236.6 143c12-1.2 16 16.5 4.7 20.6-15.3 5.5-20.7-19-4.7-20.6m-.6 5.8c-5.3 1.2-4.6 10.1 1.5 10 7.6-.3 6.2-11.7-1.5-10M242 192c.4.4 1.2 5.8 1.6 6.8-11.5 3-20.8-9.3-13.8-19.2.3-.2 5.3 2.8 5.6 3.4.5.9-2.4 4.2.5 7.4 2 2.2 5.3 1.2 6 1.6M280 190.4c.2-1 .4-6.5.6-6.8.6-.8 5.3.1 6-4.8.4-2-1.3-4.2-1-4.8.1-.4 3.5-3 4-3.3 1.7-.8 2.1.4 2.8 1.7 4.6 8.9-2.7 19-12.4 18M272.7 307.7c.6-.5 2.9 1.5 5.5.5 4-1.6 3-6 3.9-6.7l5.2-.6c2.6-.2.7 6.7-.1 8.3-3 5.8-12 8.8-17.2 4.5-1-.8-.3-.5 0-1zM144.7 173c17.9-1.2 19.6 26.2 1.4 26.9-17.2.6-19.1-25.6-1.4-26.8M144.7 219.5c17.9-1.3 19.6 26.1 1.4 26.8-17.2.6-19.1-25.6-1.4-26.8M137.8 277.1c18.5-2.5 20.9 26 2.4 26.8-16.4.7-19.6-24.4-2.4-26.8M187 302.5c17-1.4 19.7 25.1 2.4 26.8-17.9 1.6-20.6-25.4-2.5-26.8M183.2 173.1c16.3-2.3 21.7 20.5 6.9 25.9-18.9 6.8-25.6-23.2-6.9-25.9M183.2 219.6c16.8-2.4 21.6 20.8 6.9 25.8-19 6.5-25.1-23.2-6.9-25.8M104.5 177.3c11.8-2 20.5 10.6 13.8 20.7-8.2 12.2-28.5 3.6-24-11.4 1.1-4.2 5.9-8.5 10.2-9.3ZM105 225.4c11-1.6 19.4 9.8 13.9 19.7-6.2 11-23.7 7.8-25.2-5a14 14 0 0 1 11.3-14.7M182.1 100.2c21.8-3.6 21.8 29 1 26.3-14.6-2-14.4-24-1-26.3M163 137.8c21.7-3.7 21.7 29 1 26.2-14.7-1.9-14.4-24-1-26.2M169 256c21.8-3.6 21.8 29 1 26.2-14.6-1.9-14.4-24-1-26.2M130.2 133.7c18 .2 17 27.5-1 26.6-17-.8-17-26.8 1-26.6"/><path fill="#d92281" d="M281 249.6c8.4-1.9 8.5 11.4.5 9.8-5.4-1-5.4-8.7-.6-9.8M235.5 271.8c7-1.5 8.9 10.2 1 10-6.3-.2-6.2-8.8-1-10M308.4 146.7c6.2-1 8.2 8.5 2.4 9.8-8.2 1.9-8.5-9-2.4-9.8M236 148.8c7.7-1.7 9 9.8 1.5 10-6.1.1-6.8-8.8-1.5-10"/></svg>