<svg xmlns="http://www.w3.org/2000/svg" viewBox="0 0 430.5 424.3"><path fill="#fa0394" d="M419.9 200.9c.2 5.4.1 11.4 0 16.8-4.7 145-159 240.5-291.2 178.9A202 202 0 0 1 15.3 163.2C40.5 56.9 140.2-6.5 247.7 9.7 342 24 416.2 105.2 419.9 201M120.9 42c-.7-.6-2.7.8-3.4 1.2a193 193 0 0 0-91 117C2 247.8 47 351.5 132.4 387.2c46 19.1 93.3 23.2 141.4 8 134-42 179.7-209.7 84.9-314.3a196 196 0 0 0-237.9-38.9"/><path fill="#010001" d="M131.6 387.3c.2-1-.5-.9-1.1-1.1a194 194 0 0 1-86.2-80.4A193.5 193.5 0 0 1 119.9 42a197 197 0 0 1 238.7 39 193.2 193.2 0 0 1-85.2 314.3c-48.3 15.1-95.6 11-141.8-8.1M207 57.9c-79.7 4.6-147.4 74-145 154.8C66 344 217.5 412.8 317.3 325c108.4-95.5 33-275.3-110.3-267Z"/><path fill="#fa0394" d="M207 57.9c143.3-8.3 218.7 171.5 110.3 267C217.5 413 65.9 344.1 62 212.7 59.6 132 127.3 62.5 207 58ZM149.1 325c94 54.5 211.8-23.8 197.4-131.5-15-111.7-153.1-154.8-229-71.2A133 133 0 0 0 149.1 325"/><path fill="#010001" d="M149.1 325a133 133 0 0 1-31.6-202.7c75.9-83.6 214-40.5 229 71.2C360.9 301.2 243 379.5 149 325m33.1 4.1q34.6 9.4 69-.8A123.4 123.4 0 0 0 309.7 131C243.5 52.5 115.9 86.1 95 185.6A124 124 0 0 0 182.2 329"/><path fill="#fa0394" d="M251.2 329c-.4-.8-1.4-.4-2-.3-9.2 1.8-17.5 4.2-27 4.7-14 .7-24.6-1.3-38-3.9-.5-.1-1.6-.5-2 .2A124 124 0 0 1 95 185.9C116 86.1 243.5 52.4 309.7 131c57 67.8 25.7 172.8-58.5 198m-71.9-217c-3.3-3-9.7 2.8-11.9 5.4-2 2.3-7.4 10.7-2 12.1 4.4 1.2 5.3-4 7.4-6.7 1.7-2 6.1-4.3 7-5.9.7-1.4.7-3.7-.5-4.8m30.9.5c-10.4 1.4-14.6 12.5-10 21.5 5.8 11.7 24.6 9 26-4.2 1.2-10.5-5-18.8-16-17.3m63 10c-20.6 2.2-13.9 36.2 6.5 29.1 15.6-5.4 10.8-30.9-6.6-29M138 137c-15.7 2.4-15.4 28.2 2.3 28.8 21.2.8 20-32.3-2.3-28.8m54.7 40.7c4.8 4.9 8.2-4.3 11-6.9s8.4-3.4 7.2-8.3c-1.4-6-11 .6-13.3 2.9s-8 9.2-4.9 12.3m109.1-15c-12.2 1.8-11.7 21.2 0 22.8 18.5 2.4 17.6-25.4 0-22.8m-63.8 17c-1.6 1.5-2.9 4.8-.7 6.5 3.5 2.8 7.2-1.6 10.4-2.7s6.9-.2 9.4-1c3-1 3.2-5.7.3-7.2-4-2.2-16.2 1-19.4 4.3m-118 6.7c-15 2.3-15.5 28.4 1.9 30 21 1.9 21-33.6-2-30m156.2 8.8c-3 .6-5.7 3.3-6.1 6.3-1.3 8.1 9.5 12.4 14 5.7 4-6-1.1-13.1-7.9-12m30.5 7.7c-18 2.3-15.8 31.9 4.6 29.2a15 15 0 0 0 8.7-5.4c8-10.3-.6-25.5-13.3-23.8m-79.8 2.4c-15.6 2-15.7 27.3 1.2 29.2 20.9 2.3 22.2-32.2-1.2-29.2m-58 4.8c-2.8.4-3.8 3-3 5.5.7 1.9 5.2 4.4 6.8 6.5 2 2.6 3.7 10.8 8.1 8.9 4-1.7 2-7.2.7-10.1-1.6-3.4-8.6-11.4-12.7-10.8M277.8 231c-3.4.6-6.2 4.7-5.9 8 .9 10 16.8 9.6 15.2-2.2-.6-4.5-5.1-6.5-9.3-5.8m-141.2 23q2.9-2.4 1.2-5.7c-1.4-2.4-5.2-1.8-7.5-3-2.6-1.3-9-10.2-12.2-4.9-3.5 5.7 8.4 12.5 12.8 13.6 2 .5 4.2 1.3 5.7 0Zm171.7-3.3c-9 1.5-7.8 17 3.4 15 9.1-1.5 7-16.8-3.4-15m-107 2.8c-13.5 2-11 23.6 3.4 21.6 13-1.8 11-23.7-3.4-21.6m64 4c-2 .4-4.3 2.1-5.4 3.8-5 7.9 4.5 17.1 12 12a8.7 8.7 0 0 0-6.5-15.8Zm-28 5.6c-8.6 1.1-8.9 13.7-.4 15.1 11.6 2 12-16.5.4-15m42.1 25.4c-7.8 1.6-7.2 15 2 15 11 .3 10.1-17.6-2-15"/><path fill="#010001" d="M120 186.1c23-3.5 23 31.9 2 30-17.4-1.6-17-27.6-2-30M144.6 288.3c-2.5-7.5.5-14.3 6.8-18.5 17.5-7.7 29 15.2 15.6 25.4-8.5 6.6-18.3 1.9-22.4-7M273.1 122.4c17.4-1.8 22.1 23.7 6.6 29-20.4 7.1-27.1-26.8-6.6-29M227 205c23.4-3 22.1 31.4 1.2 29.1-16.9-1.8-16.8-27.1-1.2-29.1M138 136.8c22.3-3.4 23.6 29.6 2.4 28.8-17.7-.6-18-26.3-2.3-28.8M306.8 202.6c12.7-1.7 21.2 13.5 13.3 23.7a15 15 0 0 1-8.7 5.4c-20.4 2.7-22.6-26.8-4.6-29.1M210.2 112.4c11-1.5 17.2 6.9 16 17.3-1.4 13.2-20.2 15.9-26 4.2-4.6-9-.4-20.1 10-21.5M302 162.5c17.5-2.5 18.4 25.2-.1 22.7-11.7-1.5-12.2-21 0-22.7M201.4 253c14.3-2 16.4 19.8 3.4 21.6-14.5 2-17-19.6-3.4-21.5M227.8 300.4c15.5-2.3 17 21 2.2 21.4-13 .4-14.5-19.6-2.2-21.4M265.5 257a8.6 8.6 0 0 1 6.5 15.8c-7.5 5.1-17-4-12-12 1.1-1.6 3.5-3.4 5.5-3.7M197.6 193.4a8.6 8.6 0 0 1 6.4 15.7c-7.4 5.2-16.9-4-11.9-11.9 1-1.7 3.5-3.4 5.5-3.8M276.3 195c6.8-1.2 11.8 6 7.9 11.9-4.6 6.7-15.3 2.4-14-5.6.4-3.1 3-5.8 6.1-6.3M308.4 250.3c10.4-1.8 12.5 13.4 3.4 15-11.2 2-12.4-13.5-3.4-15M169 209.8c4-.6 11 7.4 12.6 10.8 1.4 2.9 3.3 8.3-.7 10-4.4 2-6.2-6.3-8.1-8.8-1.6-2.2-6.1-4.6-6.8-6.5-.8-2.4.2-5.1 3-5.5M249 289.7c4.2-.6 11.1 7.4 12.8 10.8 1.3 2.9 3.3 8.3-.7 10-4.5 2-6.2-6.3-8.1-8.8-1.7-2.2-6.2-4.6-6.8-6.5-.8-2.4.2-5.1 2.9-5.5M277.9 230.6c4.2-.7 8.7 1.3 9.3 5.8 1.6 11.7-14.3 12.1-15.2 2.3-.3-3.4 2.5-7.5 5.9-8M156.5 230.9c4.2-.7 8.7 1.3 9.3 5.8 1.6 11.7-14.3 12-15.2 2.3-.3-3.4 2.6-7.5 6-8.1M178.5 141.5c4.2-.7 8.7 1.3 9.3 5.8 1.6 11.8-14.3 12.1-15.2 2.3-.2-3.4 2.6-7.5 6-8M195.8 297.6c6.6-1.2 11.7 5.8 8 11.6-4.4 7-15.1 3.3-13.9-5.5.4-2.6 3.3-5.7 5.9-6.1ZM238.6 144.9c6.7-1.2 11.8 5.7 8.1 11.6-4.4 7-15.1 3.3-14-5.5.4-2.6 3.4-5.7 6-6.1ZM237.4 262.7c11.6-1.4 11.2 17-.4 15-8.5-1.4-8.2-14 .4-15M162.1 176.9c11.6-1.4 11.2 17-.4 15-8.5-1.4-8.2-14 .4-15M279.5 288c12.1-2.6 13 15.2 2 15-9.2-.1-9.8-13.4-2-15M192.8 177.5c-3.1-3.1 2.5-10 4.9-12.3 2.3-2.3 12-9 13.3-3 1.1 5-4.3 5.9-7.1 8.4s-6.3 11.7-11.1 6.9M238 179.4c3.3-3.3 15.5-6.5 19.5-4.4 2.9 1.6 2.8 6.3-.3 7.3-2.5.7-6.1-.1-9.4 1s-7 5.4-10.4 2.7c-2.2-1.7-1-5 .7-6.6M136.7 253.6c-1.5 1.3-3.8.5-5.7 0-4.4-1.1-16.3-8-12.8-13.6 3.2-5.3 9.6 3.6 12.2 4.9 2.3 1.1 6 .6 7.5 3 1.2 2 .6 4.2-1.2 5.7ZM179.3 112c1.2 1.1 1.2 3.4.5 4.8-.9 1.7-5.3 3.8-7 5.9-2.1 2.7-3 7.9-7.5 6.7-5.3-1.4 0-9.7 2.1-12.1 2.2-2.6 8.6-8.3 12-5.3M262.3 230c1.3 1.1 1.2 3.4.5 4.8-.8 1.6-5.3 3.8-7 5.9-2 2.7-3 7.9-7.5 6.7-5.3-1.4.1-9.8 2.1-12.1 2.2-2.6 8.6-8.3 12-5.3"/></svg>