<svg xmlns="http://www.w3.org/2000/svg" viewBox="0 0 1000 1000"><path fill="#f09" d="M469.7 5c392.6-24.1 665.9 404 459.7 746C750 1049 320.7 1079.5 106.2 803.2-140.1 486.2 70.4 29.4 469.7 5m-15.5 28.3C137.5 58.1-59.2 397 67.7 686.7 194 974.6 568.1 1059 807.2 853.5c350.4-301.2 103.3-855.8-353-820.2"/><path d="M454.2 33.3c456.4-35.6 703.4 519 353 820.2-239 205.5-613.3 121-739.5-166.8C-59.3 396.9 137.5 58 454.2 33.3m336.4 528.5c66.2-17 84.7-22 55.3-90.2-54.5-127-221-263.4-359.5-280.9-51-6.4-50.5 26.6-67.8 63.9 168.6 21.6 331.9 136.2 372 307.2Zm-204.1 62c3 3.2 30.3-16.4 41 4.2 7.4 14.5-4.3 31.3-2.4 48.8 3.9 35 56.2 31.8 59.6 0 3-27.8-22.3-48.3-1.2-76.1 10.9-14.4 82-25.8 83.1-32.3-43-162.8-194.6-274.3-359.2-290.7l-14.6 31c107.4-10.6 103 137-8.5 118.3-13-2.2-22.6-12-34-17.5L307.6 496c7.8 3.2 15.8-1.6 24.3-1.4 51 1.6 87 55.3 51.9 98.2-29.3 35.7-85.5 32.2-116.3 0l-62.2 139.5c3.1 7.1 9.8 13 18 12.7 20.5-.8 86.3-43.5 91.9-6.1 2.8 19.2-11.8 37.3.4 56.2 10.8 16.6 43.7 11.8 48.2-8 5.9-25.8-15.6-48.4-4.3-76.6 5.6-14.2 24.1-23.6 33.4-8.1 6.8 11.2-1.8 20 .3 30.5 3.8 19 34 22.5 41.5 3.8 9.4-23.3-19.3-65.4 25.2-71.7-12.7-32.4-12.4-64.7 18.3-86.2 40-28.1 101.7-2.8 108.3 45M402.4 316.9c-18.4 4.3-6.8 38.2 11.2 21.7 10.2-9.4-.7-24.1-11.2-21.7m33.6 41.4c-10.2 3-15.1 19.9-2 24.2 26 8.7 25.2-31 2-24.2m-54.3 23.2c-20.3 5.5-3.1 37.5 12.2 20.1 9-10.2-1.6-23-12.2-20.1M361.2 543c18.4-18.5-23.3-36.1-22.8-8.3.2 11.6 16.3 14.8 22.8 8.3m-56.9 31c8.5-8.5-.2-24.7-13-22.2-27 5.3-2.5 37.7 13 22.2m29.7 23.2c6.2 6.1 20.8 4.7 22.6-6 5-30.1-39.2-10.3-22.6 6m210.5 1.1c-19.5 4-16.5 33.3 2.2 35.6 28.2 3.7 26.4-41.4-2.2-35.6m-49 10.5c-10.7-10.6-30.4 2.4-21.4 17.5 8.8 14.8 34.7-4.2 21.3-17.5"/><path fill="#f09" d="M586.5 623.8c-6.6-47.8-68.3-73.1-108.3-45-30.7 21.5-31 53.8-18.3 86.2-44.5 6.3-15.8 48.4-25.2 71.7-7.5 18.7-37.7 15.2-41.5-3.8-2-10.4 6.5-19.3-.3-30.5-9.3-15.5-27.8-6.1-33.4 8.1-11.2 28.2 10.2 50.8 4.3 76.7-4.5 19.6-37.4 24.5-48.2 8-12.2-19 2.4-37.1-.4-56.4-5.6-37.4-71.4 5.4-91.8 6.2-8.3.4-15-5.6-18.1-12.7l62.2-139.5c30.8 32.2 87 35.7 116.3 0 35.1-43-1-96.6-51.9-98.2-8.5-.2-16.5 4.6-24.3 1.4l42.7-86.5c11.4 5.5 21 15.3 34 17.5 111.5 18.6 115.8-128.9 8.5-118.2l14.6-31C572 294 723.5 405.5 766.6 568.3c-1.1 6.5-72.2 17.9-83.1 32.3-21.1 27.8 4.1 48.3 1.2 76-3.4 31.9-55.7 35-59.6 0-1.9-17.4 9.8-34.2 2.3-48.7-10.6-20.6-37.8-1-41-4.2m63.6-112c18.5-18.6 19.6-46.1 7.2-68.6-30.2-54.7-140-36.6-127 39.3 8.4 49.4 86 63.4 119.8 29.4Z"/><path fill="#f09" d="M790.6 561.8c-40.1-171-203.4-285.6-372-307.2 17.3-37.3 16.7-70.3 67.8-63.9 138.6 17.5 305 153.9 359.5 280.8 29.4 68.3 10.8 73.4-55.3 90.3M544.5 598.4c28.6-5.8 30.4 39.2 2.2 35.6-18.7-2.3-21.7-31.6-2.2-35.6M304.3 574.1c-15.5 15.5-40-17-13-22.2 12.8-2.5 21.5 13.8 13 22.2M436 358.3c23.2-6.7 24 33-2 24.2-13.1-4.3-8.2-21.2 2-24.2M361.2 543.1c-6.5 6.5-22.6 3.3-22.8-8.3-.5-27.8 41.2-10.2 22.8 8.3M495.5 609c13.3 13.2-12.6 32.2-21.4 17.4-9-15.1 10.7-28.1 21.3-17.5M334 597.3c-16.6-16.3 27.7-36.1 22.6-6-1.8 10.7-16.4 12.1-22.6 6M402.4 317c10.5-2.5 21.5 12.2 11.2 21.6-18 16.5-29.6-17.4-11.2-21.7M381.7 381.5c10.6-3 21.3 10 12.2 20.1-15.3 17.4-32.5-14.6-12.2-20.1"/><path d="M650.1 511.9c-33.8 34-111.4 20-119.8-29.4-13-75.9 96.8-94 127-39.3 12.4 22.5 11.3 50-7.2 68.7Zm-61.7-59.1c7.7-7.8 3.3-22.3-8.3-22.8-27.9-1.1-8.4 39.5 8.3 22.8m38.6 1c-10.9 3.4-8 21 2.1 22.9 24.2 4.3 22-30.1-2-22.8M578 485c-26.2.7-12 42.8 8.7 21.4 9.6-10 3-21.6-8.7-21.4"/><path fill="#f09" d="M577.9 485c11.7-.2 18.3 11.5 8.7 21.4-20.6 21.4-34.9-20.7-8.7-21.4M588.4 452.8c-16.7 16.7-36.2-24-8.3-22.8 11.6.5 16 15 8.3 22.8M627 453.9c24.1-7.3 26.3 27.1 2.1 22.8-10.2-1.8-13-19.5-2-22.8"/></svg>