<svg xmlns="http://www.w3.org/2000/svg" viewBox="0 0 1000 1000"><path fill="#f09" d="M470.7 5c332.6-19.2 589.7 280 515.6 606.3-71 312.4-425.2 479.9-712.4 333.3C-180.3 713-41.6 34.8 470.7 5.1m7.7 26C123.3 47.4-88.6 420.6 85.8 733.2c188 336.8 689.5 311.2 845.1-39.8A469.7 469.7 0 0 0 478.4 31"/><path d="M478.4 31A469.7 469.7 0 0 1 931 693.4c-155.6 351-657.1 376.6-845 39.8C-88.7 420.6 123.2 47.4 478.3 31M780 569.8c2.5 2.3 59.4-17.4 64.7-22.2 17.2-15.7 2.9-47.4-4.6-65.2-58.5-140-183.4-244.6-328.6-286.2-11-3.2-28.7-9.6-39.4-10.1-39-2-44.7 39.9-58 67.2C583 273.3 748.5 396.7 780 569.8M754 580c-35.2-166.5-186.8-280.8-351.3-301L194 741.8c4.5 15 15.3 13.5 28.2 11z"/><path fill="#f09" d="M754 580 222.2 752.7c-12.9 2.5-23.7 4-28.2-11l208.7-462.6C567.2 299 718.8 413.5 754 580M517.9 466 401.2 602.2c.6 9 59.7 7 68.4 6.2C577.2 597 587.2 487.3 589.4 401c-4-5.7-54.7-.7-64.7.5-37.1 4.4-93 16.7-121 42.4-34.4 31.8-38.2 87.9-29.9 131.1l6.6 1.3z"/><path fill="#f09" d="M780 569.8C748.5 396.7 583 273.2 414 253.3c13.3-27.3 19-69.2 58-67.2 10.7.5 28.3 7 39.4 10C656.8 237.9 781.6 342.4 840 482.5c7.5 17.8 21.8 49.5 4.6 65.2-5.3 4.8-62.2 24.5-64.7 22.2"/><path fill="#0c0" d="M517.9 466 380.4 576.3l-6.6-1.3c-8.3-43.2-4.5-99.3 29.9-131 28-25.8 83.9-38 121-42.5 10-1.2 60.7-6.2 64.7-.5-2.2 86.2-12.3 196.1-119.8 207.4-8.7.9-67.8 2.8-68.4-6.2z"/></svg>